<?xml version="1.0" encoding="utf-8"?>
<svg id="master-artboard" viewBox="0 0 64 64" version="1.1" xmlns="http://www.w3.org/2000/svg" x="0px" y="0px" style="enable-background:new 0 0 1400 980;" width="64px" height="64px"><g transform="matrix(1, 0, 0, 1, -0.000002543131586207892, -7.105427357601002e-15)"><g transform="matrix(1, 0, 0, 1, -1.4210854715202004e-14, 0.000003814697265625)"><rect id="ee-background" x="0" y="0" width="64" height="64" style="fill: white; fill-opacity: 0; pointer-events: none;"/><g transform="matrix(2.459276162189641, 0, 0, 2.459276162189641, -9.80769428038674, -9.807692373038106)"><path opacity="0.5" fill="#785a28" fill-rule="evenodd" d="M13,20h7V13H13v7ZM4,4V26.984l3.955-4L8,8,22.986,8l4-4H4Z" style="fill: rgb(52, 152, 219);"/><path d="M 29.996999740600586 5.954999923706055 L 25 11 L 25 25 L 11 25 L 5.954999923706055 29.996999740600586 L 30 30 L 29.996999740600586 5.954999923706055 Z" class="active" fill="#c8aa6e" style="fill: rgb(52, 152, 219);"/><path d="M 50.44935989379883 16.568161010742188" style="fill: rgb(109, 183, 246); fill-opacity: 1; stroke: rgb(0, 0, 0); stroke-opacity: 1; stroke-width: 0; paint-order: fill;"/></g></g></g></svg>