<?xml version="1.0" encoding="utf-8"?>
<svg id="master-artboard" viewBox="0 0 64 64" version="1.1" xmlns="http://www.w3.org/2000/svg" x="0px" y="0px" style="enable-background:new 0 0 1400 980;" width="64px" height="64px"><g transform="matrix(1, 0, 0, 1, -0.000002543131586207892, -1.7763568394002505e-15)"><g transform="matrix(1, 0, 0, 1, -0.000002543131586207892, -7.105427357601002e-15)"><g transform="matrix(1, 0, 0, 1, -1.4210854715202004e-14, -1.4210854715202004e-14)"><rect id="ee-background" x="0" y="0" width="64" height="64" style="fill: white; fill-opacity: 0; pointer-events: none;"/><g transform="matrix(2.287114512524892, 0, 0, 2.287114512524892, -6.880947865279898, -6.880942779016612)"><path class="active" fill="#c8aa6e" fill-rule="evenodd" d="M25,3c-2.128,3.3-5.147,6.851-6.966,11.469A42.373,42.373,0,0,1,20,20a27.7,27.7,0,0,1,1-3C21,12.023,22.856,8.277,25,3ZM13,20c-1.488-4.487-4.76-6.966-9-9,3.868,3.136,4.422,7.52,5,12l3.743,3.312C14.215,27.917,16.527,30.451,17,31c4.555-9.445-3.366-20.8-8-28C11.67,9.573,13.717,13.342,13,20Zm8,5a15.271,15.271,0,0,1,0,2l4-4c0.578-4.48,1.132-8.864,5-12C24.712,13.537,22.134,18.854,21,25Z" style="fill: rgb(236, 240, 241);"/><path d="M 14.802239418029785 22.2710018157959" style="fill: rgb(236, 240, 241); fill-opacity: 1; stroke: rgb(0, 0, 0); stroke-opacity: 1; stroke-width: 0; paint-order: fill;"/></g></g></g></g></svg>