<?xml version="1.0" encoding="utf-8"?>
<svg id="master-artboard" viewBox="0 0 64 64" version="1.1" xmlns="http://www.w3.org/2000/svg" x="0px" y="0px" style="enable-background:new 0 0 1400 980;" width="64px" height="64px"><g transform="matrix(1, 0, 0, 1, -0.000002543131586207892, -7.105427357601002e-15)"><g transform="matrix(1, 0, 0, 1, -1.4210854715202004e-14, -1.4210854715202004e-14)"><rect id="ee-background" x="0" y="0" width="64" height="64" style="fill: white; fill-opacity: 0; pointer-events: none;"/><g transform="matrix(2.459275722503662, 0, 0, 2.4615384248249326, -9.80768871307373, -9.81673475398723)"><path opacity="0.5" fill="#785a28" fill-rule="evenodd" d="M30,12.968l-4.008,4L26,26H17l-4,4H30ZM16.979,8L21,4H4V20.977L8,17,8,8h8.981Z" style="fill: rgb(52, 152, 219);"/><path d="M 25 4 L 4 25 L 4 30 L 9 30 L 30 9 L 30 4 L 25 4 Z" class="active" fill="#c8aa6e" style="fill: rgb(52, 152, 219);"/><path d="M 6.330686092376709 12.366382598876953 L 6.330686092376709 12.366382598876953 L 6.26291561126709 11.891987800598145" style="fill: rgb(109, 183, 246); fill-opacity: 1; stroke: rgb(0, 0, 0); stroke-opacity: 1; stroke-width: 0; paint-order: fill;"/><path d="M 6.059603691101074 9.045621871948242 L 6.059603691101074 9.045621871948242" style="fill: rgb(109, 183, 246); fill-opacity: 1; stroke: rgb(0, 0, 0); stroke-opacity: 1; stroke-width: 0; paint-order: fill;"/><path d="M 7.1439337730407715 5.114924907684326 L 7.1439337730407715 5.114924907684326" style="fill: rgb(109, 183, 246); fill-opacity: 1; stroke: rgb(0, 0, 0); stroke-opacity: 1; stroke-width: 0; paint-order: fill;"/><path d="M 8.770428657531738 6.2670254707336435 L 8.770428657531738 6.267025470733643" style="fill: rgb(109, 183, 246); fill-opacity: 1; stroke: rgb(0, 0, 0); stroke-opacity: 1; stroke-width: 0; paint-order: fill;"/><path d="M 12.972208023071289 24.090702056884766 L 11.887877464294434 23.277454376220703" style="fill: rgb(109, 183, 246); fill-opacity: 1; stroke: rgb(0, 0, 0); stroke-opacity: 1; stroke-width: 0; paint-order: fill;"/><path d="M 10.329153060913086 24.903949737548828 L 10.329153060913086 24.903949737548828" style="fill: rgb(109, 183, 246); fill-opacity: 1; stroke: rgb(0, 0, 0); stroke-opacity: 1; stroke-width: 0; paint-order: fill;"/><path d="M 14.192079544067383 18.194656372070312 L 14.192079544067383 18.194656372070312" style="fill: rgb(109, 183, 246); fill-opacity: 1; stroke: rgb(0, 0, 0); stroke-opacity: 1; stroke-width: 0; paint-order: fill;"/></g></g></g></svg>