<?xml version="1.0" encoding="utf-8"?>
<svg id="master-artboard" viewBox="0 0 64 64" version="1.1" xmlns="http://www.w3.org/2000/svg" x="0px" y="0px" style="enable-background:new 0 0 1400 980;" width="64px" height="64px"><g transform="matrix(1, 0, 0, 1, -0.000002543131586207892, -7.105427357601002e-15)"><g transform="matrix(1, 0, 0, 1, -1.4210854715202004e-14, -1.4210854715202004e-14)"><g transform="matrix(1.8823529411764706, 0, 0, 1.8823529411764706, -0.000001271565793103946, 0.000003814697265625)"><path class="active" fill="#c8aa6e" fill-rule="evenodd" d="M26,13c3.535,0,8-4,8-4H23l-3,3,2,7,5-2-3-4h2ZM22,5L20.827,3H13.062L12,5l5,6Zm-5,9-1-1L13,28l4,3,4-3L18,13ZM11,9H0s4.465,4,8,4h2L7,17l5,2,2-7Z" style="fill: rgb(231, 76, 60);"/></g><path d="M 30.761213302612305 36.937992095947266" style="fill: rgb(109, 183, 246); fill-opacity: 1; stroke: rgb(0, 0, 0); stroke-opacity: 1; stroke-width: 0; paint-order: fill;"/></g></g></svg>