<?xml version="1.0" encoding="utf-8"?>
<svg id="master-artboard" viewBox="0 0 64 64" version="1.1" xmlns="http://www.w3.org/2000/svg" x="0px" y="0px" style="enable-background:new 0 0 1400 980;" width="64px" height="64px"><g transform="matrix(0.9999999403953552, 0, 0, 0.9999999403953552, -1.4210854715202004e-14, 0.0000019073486328125)"><g transform="matrix(0.9999999403953552, 0, 0, 0.9999999403953552, 0.000005722045884226645, 0)"><rect id="ee-background" x="0" y="0" width="64" height="64" style="fill: white; fill-opacity: 0; pointer-events: none;"/><g transform="matrix(0.5250000953674316, 0, 0, 0.3250003159046173, -311.25407918294275, 12.897237777709961)"><g id="Layer_2" transform="matrix(1, 0, 0, 1, 0, 0)">
	<g id="Layer_1-2">
		<path class="st0" d="M 667.2380981445312 16.769258499145508 C 667.8241479903255 27.33533270194478 700.9929035766359 65.13340048372689 702 96 C 703.007080078125 126.8666000366211 675.6038208007812 140.13148498535156 652 146 C 628.3961772235482 151.86851097569865 602.2139593135896 136.3144226569348 602 96 C 601.775138575001 53.632879901939766 666.6520385742188 6.203184127807617 667.2380981445312 16.769258499145508 Z" style="fill: rgb(189, 195, 199);" transform="matrix(1.2187112569808958, 0, 0, 1.1302224397659302, -140.55294799804676, -9.191244722116664)"/>
	<path d="M 527.5556640625 53.179534912109375" style="fill: rgb(189, 195, 199); fill-opacity: 1; stroke: rgb(0, 0, 0); stroke-opacity: 1; stroke-width: 0; paint-order: fill;"/></g>
</g></g><g transform="matrix(0.40014368295669556, 0, 0, 0.3710897564888, -226.49330139160156, -26.16350743174553)"><g id="g-3" transform="matrix(1, 0, 0, 1, 0, 0)">
	<g id="g-4" transform="matrix(0.7868029475212097, 0, 0, 0.7868029475212097, 139.0044602311482, 31.634423411443095)">
		
	<path class="st0" d="M 634.5807495117188 59.548362731933594 C 642.8320922851562 42.95111083984375 724.1571131268541 69.06515821838117 677.4839477539062 110.83867645263672 C 630.810791015625 152.61219787597656 670.5507202148438 147.62127685546875 652 146 C 633.4492875876308 144.3787186069123 600.5388904155662 121.69784790478427 583.9354858398438 92.12903594970703 C 567.3320922851562 62.56022644042969 626.3293763603538 76.14561477174259 634.5807495117188 59.548362731933594 Z" style="fill: rgb(189, 195, 199);" transform="matrix(1, 0, 0, 1, 5.161282201753181, -5.16128220175321)"/><path style="fill: rgb(189, 195, 199); fill-opacity: 1; stroke: rgb(0, 0, 0); stroke-opacity: 1; stroke-width: 0; paint-order: fill;" transform="matrix(1, 0, 0, 1, 5.161282201753181, -5.16128220175321)"/><path d="M 678.3070678710938 77.34428405761719 L 678.3070678710938 77.34428405761719" style="fill: rgb(189, 195, 199); fill-opacity: 1; stroke: rgb(0, 0, 0); stroke-opacity: 1; stroke-width: 0; paint-order: fill;" transform="matrix(1, 0, 0, 1, 5.161282201753181, -5.16128220175321)"/><path d="M 653.1458129882812 93.4732894897461" style="fill: rgb(189, 195, 199); fill-opacity: 1; stroke: rgb(0, 0, 0); stroke-opacity: 1; stroke-width: 0; paint-order: fill;" transform="matrix(1, 0, 0, 1, 5.161282201753181, -5.16128220175321)"/></g>
</g></g></g></g></svg>