<?xml version="1.0" encoding="utf-8"?>
<svg id="master-artboard" viewBox="0 0 64 64" version="1.1" xmlns="http://www.w3.org/2000/svg" x="0px" y="0px" style="enable-background:new 0 0 1400 980;" width="64px" height="64px"><g transform="matrix(0.9999999403953552, 0, 0, 0.9999999403953552, -1.4210854715202004e-14, 0.0000019073486328125)"><rect id="ee-background" x="0" y="0" width="64" height="64" style="fill: white; fill-opacity: 0; pointer-events: none;"/><g transform="matrix(0.43931797146797186, 0, 0, 0.43931797146797186, -72.7009785970052, -387.85681152343756)"><g id="g-1" transform="matrix(1, 0, 0, 1, 0, 0)">
	<g id="g-2">
		<g>
			<path class="st0" d="M236,1028c-2.1,0-4.2-0.8-5.8-2.4l-44.7-44.7c-3.2-3.2-3.2-8.4-0.1-11.6l0.1-0.1l44.7-44.7&#10;&#9;&#9;&#9;&#9;c1.6-1.6,3.6-2.4,5.8-2.4c0,0,0,0,0,0c2.1,0,4.2,0.8,5.7,2.3l0.2,0.2l44.7,44.7c3.2,3.2,3.2,8.4,0.1,11.6l-0.1,0.1l-44.7,44.7&#10;&#9;&#9;&#9;&#9;C240.2,1027.2,238.1,1028,236,1028z M189.8,973.3L189.8,973.3c-1,1-1,2.4-0.1,3.3l44.7,44.7c0.9,0.9,2.3,0.9,3.2,0l44.7-44.7&#10;&#9;&#9;&#9;&#9;c0.9-0.9,0.9-2.3,0-3.2l-44.8-44.8c-0.4-0.4-1-0.6-1.6-0.6c0,0,0,0,0,0c-0.6,0-1.2,0.2-1.6,0.7L189.8,973.3z" style="fill: rgb(189, 195, 199);"/>
		</g>
	</g>
</g></g><g transform="matrix(0.37252331244750775, 0, 0, 0.37252331244750775, -212.91887175980992, -229.78254975913418)"><g transform="matrix(1, 0, 0, 1, 0, 0)">
	<path d="M 622.6843872070312 692.9225463867188 L 654 618.6578979492188 L 685.7630004882812 692.4751586914062 L 654 723.7896118164062 L 622.6843872070312 692.9225463867188 Z" class="st0" style="fill: rgb(189, 195, 199);"/>
<path style="fill: rgb(189, 195, 199); fill-opacity: 1; stroke: rgb(0, 0, 0); stroke-opacity: 1; stroke-width: 0; paint-order: fill;"/><path d="M 681.7422485351562 844.1435546875 L 628.9491577148438 885.751708984375" style="fill: rgb(189, 195, 199); fill-opacity: 1; stroke: rgb(0, 0, 0); stroke-opacity: 1; stroke-width: 0; paint-order: fill;"/><path d="M 683.979248046875 894.69970703125" style="fill: rgb(189, 195, 199); fill-opacity: 1; stroke: rgb(0, 0, 0); stroke-opacity: 1; stroke-width: 0; paint-order: fill;"/><path d="M 824.462646484375 849.06494140625" style="fill: rgb(189, 195, 199); fill-opacity: 1; stroke: rgb(0, 0, 0); stroke-opacity: 1; stroke-width: 0; paint-order: fill;"/></g></g><g transform="matrix(0.39526188933375317, 0, 0, 0.39526188933375317, -62.255552491550304, -345.05285276024597)"><g id="g-7" transform="matrix(1, 0, 0, 1, 0, 0)">
	<g id="g-8">
		<g>
			<path class="st0" d="M236,1028c-2.1,0-4.2-0.8-5.8-2.4l-44.7-44.7c-3.2-3.2-3.2-8.4-0.1-11.6l0.1-0.1l44.7-44.7&#10;&#9;&#9;&#9;&#9;c1.6-1.6,3.6-2.4,5.8-2.4c0,0,0,0,0,0c2.1,0,4.2,0.8,5.7,2.3l0.2,0.2l44.7,44.7c3.2,3.2,3.2,8.4,0.1,11.6l-0.1,0.1l-44.7,44.7&#10;&#9;&#9;&#9;&#9;C240.2,1027.2,238.1,1028,236,1028z M189.8,973.3L189.8,973.3c-1,1-1,2.4-0.1,3.3l44.7,44.7c0.9,0.9,2.3,0.9,3.2,0l44.7-44.7&#10;&#9;&#9;&#9;&#9;c0.9-0.9,0.9-2.3,0-3.2l-44.8-44.8c-0.4-0.4-1-0.6-1.6-0.6c0,0,0,0,0,0c-0.6,0-1.2,0.2-1.6,0.7L189.8,973.3z" style="fill: rgb(189, 195, 199);"/>
		</g>
	</g>
</g></g><g transform="matrix(0.030176078900694847, 0.030176078900694847, -0.041391003876924515, 0.04139019548892975, 21.2173811594645, 20.602123896280926)"><g id="g-11" transform="matrix(1, 0, 0, 1, 0, 0)">
	<g id="g-12">
		<path class="st0" d="M652,46c27.6,0,50,22.4,50,50s-22.4,50-50,50s-50-22.4-50-50S624.4,46,652,46z" style="fill: rgb(189, 195, 199);"/>
	</g>
</g></g><g transform="matrix(0.03017633780837059, -0.030176283791661266, 0.041392289102077484, 0.041392765939235694, 1.0642530520757134, 59.88198089599611)"><g id="g-13" transform="matrix(1, 0, 0, 1, 0, 0)">
	<g id="g-14">
		<path class="st0" d="M652,46c27.6,0,50,22.4,50,50s-22.4,50-50,50s-50-22.4-50-50S624.4,46,652,46z" style="fill: rgb(189, 195, 199);"/>
	</g>
</g></g></g></svg>