<?xml version="1.0" encoding="utf-8"?>
<svg id="master-artboard" viewBox="0 0 64 64" version="1.1" xmlns="http://www.w3.org/2000/svg" x="0px" y="0px" style="enable-background:new 0 0 336 235.2;" width="64px" height="64px"><rect id="ee-background" x="0" y="0" width="64" height="64" style="fill: white; fill-opacity: 0; pointer-events: none;" transform="matrix(1, 0, 0, 1, 1, 0)"/><g transform="matrix(0.1849999725818634, 0, 0, 0.3040756304739034, 0.2700080871582031, 1.3131771321865244)"><g id="g-1" transform="matrix(1, 0, 0, 1, 0, 0)">
	<g id="g-2">
		<path class="st0" d="M 58 17.209667205810547 L 158 49 L 158.90090942382812 180.7903289794922 L 58 149 L 58 17.209667205810547 Z" style="fill: rgb(189, 195, 199);"/>
	<path style="fill: rgb(189, 195, 199); fill-opacity: 1; stroke: rgb(0, 0, 0); stroke-opacity: 1; stroke-width: 0; paint-order: fill;"/></g>
</g></g><path class="st0" d="M 58 17.209667205810547 L 158 49 L 158.90090942382812 180.7903289794922 L 58 149 L 58 17.209667205810547 Z" style="fill: rgb(189, 195, 199);" transform="matrix(-0.18499997258186343, 0, 0, 0.3040757179260254, 63.663592020670606, 1.3273979425430298)"/><path style="fill: rgb(51, 51, 51); fill-opacity: 1; stroke: rgb(0, 0, 0); stroke-opacity: 1; stroke-width: 0; paint-order: fill;" transform="matrix(0.18499997258186343, 0, 0, 0.3040757179260254, 25.37026850382489, 2.4940646489461287)"/><g transform="matrix(0.32, 0, 0, 0.32, -42.879985885620115, -134.71999809265137)"><g id="g-3" transform="matrix(1, 0, 0, 1, 0, 0)">
	<g id="g-4">
		<path class="st0" d="M 254.08334350585938 591.8333740234375 L 185.79165649414062 605.8958129882812 L 231.625 580.375 L 232.43751525878906 468.3958435058594 L 254.6041717529297 460.58331298828125 L 254.08334350585938 591.8333740234375 Z" style="fill: rgb(189, 195, 199);" transform="matrix(1, 0, 0, 1, 78.64582776674112, -5.208332964684871)"/>
	</g>
</g></g><path class="st0" d="M 254.08334350585938 591.8333740234375 L 185.79165649414062 605.8958129882812 L 231.625 580.375 L 232.43751525878906 468.3958435058594 L 254.6041717529297 460.58331298828125 L 254.08334350585938 591.8333740234375 Z" style="fill: rgb(189, 195, 199);" transform="matrix(-0.3200001120567322, 0, 0, 0.3200001120567322, 81.7302983601888, -136.3724822998047)"/></svg>