<?xml version="1.0" encoding="utf-8"?>
<svg id="master-artboard" viewBox="0 0 128 128" version="1.1" xmlns="http://www.w3.org/2000/svg" x="0px" y="0px" style="enable-background:new 0 0 1400 980;" width="128px" height="128px"><rect id="ee-background" x="0" y="0" width="128" height="128" style="fill: white; fill-opacity: 0; pointer-events: none;"/><defs><style id="ee-google-fonts">@import url(https://fonts.googleapis.com/css?family=Fjalla+One:400|Roboto:100,100italic,300,300italic,400,400italic,500,500italic,700,700italic,900,900italic);</style></defs>

































































































<path d="M 90.1027603149414 76.35493469238281 C 90.1027603149414 76.35493469238281 29.26942253112793 10.854934692382812 29.43609046936035 10.854934692382812 C 29.602758407592773 10.854934692382812 0.9360911250114441 0.8549346923828152 0.9360911250114441 0.8549346923828152 L 9.436091423034668 27.688268661499023 L 76.26942443847656 90.52159881591797 C 77.2050283843528 89.34850037289097 82.36258449968543 81.29091294954507 90.1027603149414 76.35493469238281 Z" style="fill: rgb(191, 195, 199); fill-opacity: 1; stroke: rgb(0, 0, 0); stroke-opacity: 0; stroke-width: 0; paint-order: stroke;" transform="matrix(1, 0, 0, 1, 0.1666666666666714, 0)"/><path d="M 75.26942443847656 74.85493469238281" style="fill: rgb(0, 0, 0); fill-opacity: 1; stroke: rgb(0, 0, 0); stroke-opacity: 0; stroke-width: 0; paint-order: fill;"/><g transform="matrix(0.18333353102207184, 0, 0, 0.18333353102207184, -0.8667335510253906, 100.89998626708984)"><g id="g-1" transform="matrix(1, 0, 0, 1, 0, 0)">
	<g id="g-2">
		<path class="st0" d="M652,46c27.6,0,50,22.4,50,50s-22.4,50-50,50s-50-22.4-50-50S624.4,46,652,46z" style="fill: rgb(191, 195, 199);"/>
	</g>
</g></g><path d="M 111.43608856201172 119.18827056884766 L 119.1027603149414 112.02159881591797 L 100.93609619140625 90.02159881591797 L 114.6027603149414 76.18827056884766 L 108.76942443847656 69.18827056884766 C 108.36487398234893 68.78372939178203 86.30519104003906 85.89071655273438 86.26942443847656 86.02159881591797 C 86.23366016070206 86.15248334551822 69.2402205365314 107.15906671483623 69.76942443847656 107.68827056884766 L 76.1027603149414 114.35493469238281 L 88.93609619140625 101.02159881591797 C 88.93609619140625 101.02159881591797 110.76942443847656 119.68827056884766 111.43608856201172 119.18827056884766 Z" style="fill-opacity: 1; stroke: rgb(0, 0, 0); stroke-opacity: 0; stroke-width: 0; paint-order: fill; fill: rgb(191, 195, 199);"/></svg>