<svg version="1" xmlns="http://www.w3.org/2000/svg" width="1365.333" height="1365.333" viewBox="0 0 1024.000000 1024.000000"><path d="M8.2 45.9c.2.4 15.2 20.7 33.3 45l33 44.1 6.1 15.7c6.6 17.3 22 57.3 31.9 83.3 3.5 9.1 10.4 27.3 15.5 40.5s12 31.4 15.5 40.5c20.2 53 37.2 97.3 51 133.5 17.2 44.8 27.7 72.4 54.3 142 4.4 11.5 11.4 29.8 15.5 40.5s14.1 36.8 22.2 58c8.1 21.2 18.1 47.3 22.2 58 4.1 10.7 11.1 28.9 15.5 40.5 16.7 43.7 20.9 54.7 29.8 78 9.5 24.7 15.2 39.8 30.8 80.5 4.9 12.9 9.6 25.2 10.5 27.3l1.6 3.7h127.6c120.6 0 127.6-.1 128.1-1.8.8-2.3 11-29.1 29.2-76.7C690.1 877 705 838.1 715 812c10-26.1 20.8-54.3 24-62.5 3.2-8.3 9.5-24.7 14-36.5s14.9-38.8 23-60c8.1-21.2 18.5-48.2 23-60 4.5-11.8 10.8-28.3 14-36.5 3.2-8.3 12.9-33.5 21.5-56 8.7-22.6 22.4-58.3 30.5-79.5 8.1-21.2 21.9-57 30.5-79.5 8.7-22.6 22.4-58.3 30.5-79.5 8.1-21.2 18.5-48.2 23-60 4.5-11.8 10.8-28.3 14-36.5 5.3-13.6 30.4-79.1 41.3-107.6l4.4-11.7-70.9-.7c-59.5-.6-71.2-.5-72.3.6-.7.8-2.2 3.9-3.3 6.9-1.1 3-5.5 14.5-9.7 25.5-7.6 19.9-19.9 51.8-32 83.5-3.5 9.1-9.8 25.5-14 36.5-7 18.4-12.7 33.3-30 78.5-3.5 9.1-13.8 36.1-23 60s-21.3 55.6-27 70.5c-5.6 14.8-16.7 43.6-24.5 64-7.8 20.3-17.8 46.4-22.2 58-4.4 11.5-11.3 29.5-15.3 40-4 10.4-11 28.7-15.5 40.5s-11.5 30-15.5 40.5c-4 10.4-11 28.7-15.5 40.5s-11.5 30-15.5 40.5c-4 10.4-11 28.7-15.5 40.5s-11.5 30-15.5 40.5c-4.1 10.4-8.3 21.6-9.5 24.8-1.2 3.3-2.6 5.5-3.1 5-.4-.4-4.2-9.8-8.4-20.8-7.1-18.4-13.3-34.8-30-78.5-3.5-9.1-10.4-27.3-15.5-40.5-13.1-34.1-21-55-30-78.5-4.3-11.3-11.2-29.3-15.3-40-4.1-10.7-14.1-36.8-22.2-58-8.1-21.2-18.8-49.1-23.7-62-5-12.9-11.8-30.9-15.3-40-3.5-9.1-10.4-27.3-15.5-40.5-9.5-24.8-16-41.8-29.8-78-4.4-11.6-11.5-30-15.7-41-4.3-11-10.1-26.3-13-34-2.9-7.7-9.5-24.8-14.5-38-5.1-13.2-12-31.4-15.5-40.5-11-28.7-24-62.8-32-83.5-4.2-11-7.9-20.8-8.2-21.8-.5-1.6-7.3-1.7-123.5-1.7-69.4 0-122.8.4-122.6.9z"/></svg>