<?xml version="1.0" encoding="utf-8"?>
<svg id="master-artboard" viewBox="0 0 420 320" version="1.1" xmlns="http://www.w3.org/2000/svg" x="0px" y="0px" style="enable-background:new 0 0 1400 980;" width="420px" height="320px"><rect id="ee-background" x="0" y="0" width="420" height="320" style="fill: rgb(18, 18, 18); fill-opacity: 0; pointer-events: none;"/><g transform="matrix(1.0000000953674317, 0, 0, 1.0000000953674317, 49.99998280773343, 0)"><rect id="rect-1" x="0" y="0" width="320" height="320" style="fill: white; fill-opacity: 0; pointer-events: none;"/><g transform="matrix(0.46535908115769714, 0, 0, 0.46535908115769714, -26.14361770313828, -26.182839939129494)"><g transform="matrix(0.725987920003637, 0, 0, 0.725987920003637, 109.60482990799893, 109.76923360206811)">
	<path class="st0" d="M377.6,269c-26.9,6.2-31.8,35.2-17.3,78.7c14.5,43.5,39.7,61.9,39.7,61.9S464.2,359.3,492,240&#10;&#9;&#9;C445.1,273.1,400.2,263.8,377.6,269z" style="fill: rgb(44, 62, 80); stroke: rgb(112, 122, 91); stroke-width: 0;"/>
	<path class="st0" d="M358.2,367.4c0,0-24.8-42.6-18.7-78.5s36.8-39.4,65.7-41.8s69.6-14.4,87.5-42.4c10.8-16.8,8.2-48.1,8.2-60&#10;&#9;&#9;c0-11.8-12.3-19.5-30.9-19.5c0,5.4,0.1,7.4,0.1,7.4s12.3-0.3,19.1,6.7s-1.2,20.3-27.9,27.6c-35.4,9.6-95.9,13.6-143.7-7.9&#10;&#9;&#9;c-19-8.5-17.2-23,7.9-25.3v-7.4c0,0-30.3,0.7-30.3,19.1s-4.4,48,11.8,113.4C323.1,324.2,358.2,367.4,358.2,367.4z" style="fill: rgb(44, 62, 80); stroke: rgb(112, 122, 91); stroke-width: 0;"/>
	<path class="st0" d="M138.5,417.4c0,0,39.3,55.4,127.8,77.3c-91.5-6-132.7-36.2-132.7-36.2L138.5,417.4z" style="fill: rgb(44, 62, 80); stroke: rgb(112, 122, 91); stroke-width: 0;"/>
	<path class="st0" d="M126.9,515.4c0,0,71.5,36.2,177.9,31c-61.6,15.2-116,21.2-182.7,9.5L126.9,515.4z" style="fill: rgb(44, 62, 80); stroke: rgb(112, 122, 91); stroke-width: 0;"/>
	<path class="st0" d="M165.5,186.8c0,0,23.3-11.6,39.6-14.9c23.1,40.3,62.4,74.4,62.4,74.4l23.3,60.1c0,0-37.1-14.1-56.1-29.4&#10;&#9;&#9;c5.2,22.4,42,121.5,144.1,198.3C272.2,423.1,164.8,341.8,165.5,186.8z" style="fill: rgb(44, 62, 80); stroke: rgb(112, 122, 91); stroke-width: 0;"/>
	<path class="st0" d="M634.7,186.8c0,0-23.3-11.6-39.6-14.9c-23.1,40.3-62.4,74.4-62.4,74.4l-23.3,60.1c0,0,37.1-14.1,56.1-29.4&#10;&#9;&#9;c-5.2,22.4-15.5,84.6-90.2,169C520.6,418.3,635.5,341.8,634.7,186.8z" style="fill: rgb(44, 62, 80); stroke: rgb(112, 122, 91); stroke-width: 0;"/>
	<path class="st0" d="M316.3,363.4c0,0,50.4,98.4,206.1,120.5c-52.6,100.9-203.2,90.3-243.4,0c30.5-3.8,58.6-13.5,58.6-13.5&#10;&#9;&#9;l32.1,17.5l-20.8,9.7c0,0,40.7,43,99.4-2.3C390.7,475.3,340.7,422,316.3,363.4z" style="fill: rgb(44, 62, 80); stroke: rgb(112, 122, 91); stroke-width: 0;"/>
	<path class="st0" d="M740.4,586.1l-58-430.9c0,0-63.3-32.7-100.9-40.9C554.1,175,522,214.7,522,214.7c27.8-15.9,69.1-77,69.1-77&#10;&#9;&#9;l75.6,33.9l55.9,407l-322.6,179l-322.6-179l55.9-407l71.4-33.9c0,0,45.5,61.1,73.3,77c0,0-32.1-39.7-59.5-100.3&#10;&#9;&#9;c-37.6,8.2-100.9,40.9-100.9,40.9l-58,430.9l339.8,192.8l0,0l0,0l0,0l0,0l0.4,0.2L740.4,586.1z" style="fill: rgb(44, 62, 80); stroke: rgb(112, 122, 91); stroke-width: 0;"/>
	<path class="st0" d="M510.9,456c98.4-31.1,144.7-92.1,144.7-92.1l-7.2-63.6C648.4,300.2,627.1,394.8,510.9,456z" style="fill: rgb(44, 62, 80); stroke: rgb(112, 122, 91); stroke-width: 0;"/>
	<path class="st0" d="M289.3,456c-98.4-31.1-144.7-92.1-144.7-92.1l7.2-63.6C151.8,300.2,173.1,394.8,289.3,456z" style="fill: rgb(44, 62, 80); stroke: rgb(112, 122, 91); stroke-width: 0;"/>
	<path class="st0" d="M661.8,417.4c0,0-39.3,55.4-127.8,77.3c91.5-6,132.7-36.2,132.7-36.2L661.8,417.4z" style="fill: rgb(44, 62, 80); stroke: rgb(112, 122, 91); stroke-width: 0;"/>
	<path class="st0" d="M673.3,515.4c0,0-71.5,36.2-177.9,31c61.6,15.2,116,21.2,182.7,9.5L673.3,515.4z" style="fill: rgb(44, 62, 80); stroke: rgb(112, 122, 91); stroke-width: 0;"/>
	<path d="M 580.0999755859375 616.4000244140625 L 563.4000244140625 592.2000122070312 L 614.2999877929688 592.2000122070312 L 619.2000122070312 596 Z" class="st0" style="fill: rgb(44, 62, 80); stroke: rgb(112, 122, 91); stroke-width: 0;"/>
	<path d="M 501.29998779296875 657.7000122070312 L 481.8999938964844 588.2999877929688 L 535.2000122070312 588.2999877929688 L 561.5 626.0999755859375 Z" class="st0" style="fill: rgb(44, 62, 80); stroke: rgb(112, 122, 91); stroke-width: 0;"/>
	<path class="st0" d="M433.3,80c17.8,43.2-9.9,52.4-17.3,48.3c-18.2-10.1,9-20.5,2.1-47.6c-8.5-33.2-43.8-32.3-25.9-58.7&#10;&#9;&#9;c-22.8,14-0.3,41.5-5.1,58.9c-4.8,17.4-47.3,17.1-31-21.7c-26.3,28.1-3,46.3-2.5,62.1c0.8,22.6-14.8,26-14.8,26s3.6,3.4,16.5,4&#10;&#9;&#9;c10.9,0.5,24.9-11.3,21.7-38.9c11,14.3-0.4,39.1,31.5,43.2c24.1,3.1,43.9-6.1,43.9-6.1C426.8,133.1,473.4,110.2,433.3,80z&#10;&#9;&#9; M397.6,113.1c-9.4-19.2,11.2-21.6,1.1-42.6C416.5,89.1,395.6,99.5,397.6,113.1z" style="fill: rgb(44, 62, 80); stroke: rgb(112, 122, 91); stroke-width: 0;"/>
	<path class="st0" d="M417.5,432.6c42.5-26.5,66.5-69.2,66.5-69.2c-11.6,27.8-25.9,53.8-49.5,76.3&#10;&#9;&#9;C434.4,439.7,421.7,435.9,417.5,432.6z" style="fill: rgb(44, 62, 80); stroke: rgb(112, 122, 91); stroke-width: 0;"/>
	<path d="M 220.1999969482422 616.4000244140625 L 236.8000030517578 592.2000122070312 L 186 592.2000122070312 L 181 596 Z" class="st0" style="fill: rgb(44, 62, 80); stroke: rgb(112, 122, 91); stroke-width: 0;"/>
	<path d="M 298.8999938964844 657.7000122070312 L 318.29998779296875 588.2999877929688 L 265 588.2999877929688 L 238.8000030517578 626.0999755859375 Z" class="st0" style="fill: rgb(44, 62, 80); stroke: rgb(112, 122, 91); stroke-width: 0;"/>
	<path class="st0" d="M480.6,669.2l-28-99.9c-19.4,5.6-37.1,7.7-52.5,7.7c-15.4-0.1-33.1-2.1-52.5-7.7l-28,99.9l80.5,40.3l78.5-39.4&#10;&#9;&#9;v0L480.6,669.2z" style="fill: rgb(44, 62, 80); stroke: rgb(112, 122, 91); stroke-width: 0;"/>
</g></g><g transform="matrix(1.5377222038178209, 0, 0, 1.5377222038178209, 0.000008386551598960068, 131.93656978032476)"><g transform="matrix(1, 0, 0, 1, 2.842170943040401e-14, -0.3574254301116042)">
	<path d="M 202.3000030517578 0 L 202.3000030517578 15.699999809265137 L 195.89999389648438 15.699999809265137 L 195.89999389648438 0 L 190.1999969482422 0 L 190.1999969482422 36.5 L 195.89999389648438 36.5 L 195.89999389648438 20.799999237060547 L 202.3000030517578 20.799999237060547 L 202.3000030517578 36.5 L 208.10000610351562 36.5 L 208.10000610351562 0 Z" class="st0" style="fill: rgb(242, 184, 75); stroke: rgb(189, 195, 199); stroke-width: 0;"/>
	<path class="st0" d="M12.8,0H4.6C2.1,0,0,2.1,0,4.6v27.2c0,2.6,2.1,4.6,4.6,4.6h8.2c2.5,0,4.6-2.1,4.6-4.6v-7h-5.7v6.5h-6V5.1h6&#10;&#9;&#9;v3.6l5.7,5.7V4.6C17.4,2.1,15.3,0,12.8,0z" style="fill: rgb(242, 184, 75); stroke: rgb(189, 195, 199); stroke-width: 0;"/>
	<path class="st0" d="M159.1,16.1l0-11.5c0-2.6-2.1-4.6-4.6-4.6h-7.2c-2.6,0-4.6,2.1-4.6,4.6V10c0,0.2,0,1.6,0.9,3l9.9,12.7v5.6&#10;&#9;&#9;h-5.1v-5.3h-5.7v5.8c0,2.6,2.1,4.6,4.6,4.6h7.2c2.6,0,4.6-2.1,4.6-4.6l0-6.1c0-0.1,0-1.5-0.9-3l-9.9-12.7v-5h5.1v3.6L159.1,16.1z" style="fill: rgb(242, 184, 75); stroke: rgb(189, 195, 199); stroke-width: 0;"/>
	<path d="M 55.5 31.100000381469727 L 55.5 0 L 49.79999923706055 0 L 49.79999923706055 36.5 L 68.5999984741211 36.5 L 63.900001525878906 31.100000381469727 Z" class="st0" style="fill: rgb(242, 184, 75); stroke: rgb(189, 195, 199); stroke-width: 0;"/>
	<g>
		<path class="st0" d="M104.1,0l-7,18.5c-2.1-1.5-4.2-3.1-6.5-5.1c0,0,3.3,5.2,8.8,10.4c-0.9-0.1-2.4-0.7-3.8-1.3l-5.2,13.9h6.4&#10;&#9;&#9;&#9;l4.2-11.3c2.5,2.2,5.3,4.3,8.5,6l2,5.3h6.4L104.1,0z M102.2,21.8l1.9-5l2.7,7.2C105.2,23.3,103.7,22.6,102.2,21.8z" style="fill: rgb(242, 184, 75); stroke: rgb(189, 195, 199); stroke-width: 0;"/>
	</g>
</g></g></g></svg>