<?xml version="1.0" encoding="utf-8"?>
<svg id="master-artboard" viewBox="0 0 64 64" version="1.1" xmlns="http://www.w3.org/2000/svg" x="0px" y="0px" style="enable-background:new 0 0 336 235.2;" width="64px" height="64px"><rect id="ee-background" x="0" y="0" width="64" height="64" style="fill: white; fill-opacity: 0; pointer-events: none;"/><g transform="matrix(0.5861110106731454, 0, 0, 0.5861110106731454, -3.1666661240160443, -3.1666637005073404)"><rect id="rect-1" x="0" y="0" width="120" height="120" style="fill: white; fill-opacity: 0; pointer-events: none;"/><path d="M 37.76055908203125 98.18960571289062" style="fill: rgb(255, 0, 208); fill-opacity: 1; stroke: rgb(0, 0, 0); stroke-opacity: 1; stroke-width: 0; paint-order: fill;"/><g transform="matrix(0.10062886029481889, 0, 0, 0.10062886029481889, -5.811272621154771, -23.455956776936844)"><g id="g-1" transform="matrix(1, 0, 0, 1, 0, 0)">
	<g id="g-2">
		<g>
			<path class="st0" d="M654,884c-29.2,0-53-23.8-53-53s23.8-53,53-53s53,23.8,53,53S683.2,884,654,884z M654,784&#10;&#9;&#9;&#9;&#9;c-25.9,0-47,21.1-47,47s21.1,47,47,47s47-21.1,47-47S679.9,784,654,784z" style="fill: rgb(189, 195, 199);"/>
		</g>
	</g>
</g></g><g transform="matrix(0.10062886029481889, 0, 0, 0.10062886029481889, -5.8840470314025595, 2.567022959391288)"><g id="g-3" transform="matrix(1, 0, 0, 1, 0, 0)">
	<g id="g-4">
		<g>
			<path class="st0" d="M654,884c-29.2,0-53-23.8-53-53s23.8-53,53-53s53,23.8,53,53S683.2,884,654,884z M654,784&#10;&#9;&#9;&#9;&#9;c-25.9,0-47,21.1-47,47s21.1,47,47,47s47-21.1,47-47S679.9,784,654,784z" style="fill: rgb(189, 195, 199);"/>
		</g>
	</g>
</g></g><g transform="matrix(0.10062886029481889, 0, 0, 0.10062886029481889, 7.449286460876493, -10.432977040608712)"><g id="g-5" transform="matrix(1, 0, 0, 1, 0, 0)">
	<g id="g-6">
		<g>
			<path class="st0" d="M654,884c-29.2,0-53-23.8-53-53s23.8-53,53-53s53,23.8,53,53S683.2,884,654,884z M654,784&#10;&#9;&#9;&#9;&#9;c-25.9,0-47,21.1-47,47s21.1,47,47,47s47-21.1,47-47S679.9,784,654,784z" style="fill: rgb(189, 195, 199);"/>
		</g>
	</g>
</g></g><g transform="matrix(0.10062886029481889, 0, 0, 0.10062886029481889, -19.05071322123206, -10.599643389383942)"><g id="g-7" transform="matrix(1, 0, 0, 1, 0, 0)">
	<g id="g-8">
		<g>
			<path class="st0" d="M654,884c-29.2,0-53-23.8-53-53s23.8-53,53-53s53,23.8,53,53S683.2,884,654,884z M654,784&#10;&#9;&#9;&#9;&#9;c-25.9,0-47,21.1-47,47s21.1,47,47,47s47-21.1,47-47S679.9,784,654,784z" style="fill: rgb(189, 195, 199); stroke: rgb(189, 195, 199); stroke-width: 0; paint-order: stroke; stroke-opacity: 0;"/>
		</g>
	</g>
</g></g><path d="M 52.42722702026367 8.35627269744873 C 52.654672364646295 7.491981199903531 9.023025451571169 27.32557203950189 7.26055908203125 34.0229377746582 C 5.142461155743119 36.16545496321192 19.59378968514199 61.87140436738704 20.42722511291504 60.5229377746582 L 69.0938949584961 50.5229377746582 L 60.09389114379883 34.689605712890625 C 54.83445753293706 39.058093991654744 53.65094023168213 54.97797319186523 33.59389114379883 40.5229377746582 L 52.42722702026367 8.35627269744873 Z" style="fill: rgb(189, 195, 199); fill-opacity: 1; stroke: rgb(0, 0, 0); stroke-opacity: 1; stroke-width: 0; paint-order: fill;"/><path d="M 52.42722702026367 8.35627269744873 C 52.654672364646295 7.491981199903531 9.023025451571169 27.32557203950189 7.26055908203125 34.0229377746582 C 5.142461155743119 36.16545496321192 19.59378968514199 61.87140436738704 20.42722511291504 60.5229377746582 L 69.0938949584961 50.5229377746582 L 60.09389114379883 34.689605712890625 C 54.83445753293706 39.058093991654744 53.65094023168213 54.97797319186523 33.59389114379883 40.5229377746582 L 52.42722702026367 8.35627269744873 Z" style="fill: rgb(189, 195, 199); fill-opacity: 1; stroke: rgb(0, 0, 0); stroke-opacity: 1; stroke-width: 0; paint-order: fill;" transform="matrix(-1, 0, 0, 1, 120.16525268554688, 0.07141590118408203)"/><path d="M 19.26055908203125 50.689605712890625 C 14.727019243674494 51.047516818243174 35.10128380702998 113.7767391261119 46.76055908203125 112.85626983642578 L 46.76055908203125 99.52294158935547 L 19.26055908203125 50.689605712890625 Z" style="fill: rgb(189, 195, 199); fill-opacity: 1; stroke: rgb(0, 0, 0); stroke-opacity: 1; stroke-width: 0; paint-order: stroke;"/><path d="M 19.26055908203125 50.689605712890625 C 14.727019243674494 51.047516818243174 35.10128380702998 113.7767391261119 46.76055908203125 112.85626983642578 L 46.76055908203125 99.52294158935547 L 19.26055908203125 50.689605712890625 Z" style="fill: rgb(189, 195, 199); fill-opacity: 1; stroke: rgb(0, 0, 0); stroke-opacity: 1; stroke-width: 0; paint-order: stroke;" transform="matrix(-1, 0, 0, 1, 119.78101348876953, -0.4216817542910576)"/><g transform="matrix(0.4083331227302551, 0, 0, 0.08333327743131236, 15.816681861877441, 87.249995884448)"><g id="g-9" transform="matrix(1, 0, 0, 1, 0, 0)">
	<g id="g-10">
		<path class="st0" d="M58,49h100v100H58V49z" style="fill: rgb(189, 195, 199);"/>
	</g>
</g></g><g transform="matrix(0.16037738323211673, 0, 0, 0.16037738323211673, -58.12623341878253, -60.250651041666664)"><g id="g-13" transform="matrix(1, 0, 0, 1, 0, 0)">
	<g id="g-14">
		<g>
			<path class="st0" d="M654,884c-29.2,0-53-23.8-53-53s23.8-53,53-53s53,23.8,53,53S683.2,884,654,884z M654,784&#10;&#9;&#9;&#9;&#9;c-25.9,0-47,21.1-47,47s21.1,47,47,47s47-21.1,47-47S679.9,784,654,784z" style="fill: rgb(189, 195, 199); stroke: rgb(189, 195, 199); stroke-width: 31; paint-order: stroke; stroke-opacity: 1;"/>
		</g>
	</g>
</g></g><g transform="matrix(0.16037738323211673, 0, 0, 0.16037738323211673, -31.626251220703125, -60.08400090535482)"><g id="g-15" transform="matrix(1, 0, 0, 1, 0, 0)">
	<g id="g-16">
		<g>
			<path class="st0" d="M654,884c-29.2,0-53-23.8-53-53s23.8-53,53-53s53,23.8,53,53S683.2,884,654,884z M654,784&#10;&#9;&#9;&#9;&#9;c-25.9,0-47,21.1-47,47s21.1,47,47,47s47-21.1,47-47S679.9,784,654,784z" style="fill: rgb(189, 195, 199); stroke: rgb(189, 195, 199); stroke-width: 31; paint-order: stroke; stroke-opacity: 1;"/>
		</g>
	</g>
</g></g><g transform="matrix(0.16037738323211673, 0, 0, 0.16037738323211673, -44.959584554036454, -47.08400090535482)"><g id="g-17" transform="matrix(1, 0, 0, 1, 0, 0)">
	<g id="g-18">
		<g>
			<path class="st0" d="M654,884c-29.2,0-53-23.8-53-53s23.8-53,53-53s53,23.8,53,53S683.2,884,654,884z M654,784&#10;&#9;&#9;&#9;&#9;c-25.9,0-47,21.1-47,47s21.1,47,47,47s47-21.1,47-47S679.9,784,654,784z" style="fill: rgb(189, 195, 199); stroke: rgb(189, 195, 199); stroke-width: 31; paint-order: stroke; stroke-opacity: 1;"/>
		</g>
	</g>
</g></g><g transform="matrix(0.16037738323211673, 0, 0, 0.16037738323211673, -44.95958201090495, -73.08399963378906)"><g id="g-19" transform="matrix(1, 0, 0, 1, 0, 0)">
	<g id="g-20">
		<g>
			<path class="st0" d="M654,884c-29.2,0-53-23.8-53-53s23.8-53,53-53s53,23.8,53,53S683.2,884,654,884z M654,784&#10;&#9;&#9;&#9;&#9;c-25.9,0-47,21.1-47,47s21.1,47,47,47s47-21.1,47-47S679.9,784,654,784z" style="fill: rgb(189, 195, 199); stroke: rgb(189, 195, 199); stroke-width: 31; paint-order: stroke; stroke-opacity: 1;"/>
		</g>
	</g>
</g></g><g transform="matrix(0.0866665467619896, 0, 0, 0.07333315908908845, 50.97334671020508, 66.07334136962892)"><g id="g-23" transform="matrix(1, 0, 0, 1, 0, 0)">
	<g id="g-24">
		<path class="st0" d="M58,49h100v100H58V49z" style="fill: rgb(189, 195, 199);"/>
	</g>
</g></g><path d="M 66.0938949584961 53.189605712890625 L 99.26055908203125 53.689605712890625 L 82.76055908203125 96.68960571289062 L 65.59388732910156 92.02294158935547 C 63.41064405593063 86.94594644723524 82.65182557617769 71.21984854030747 83.4272232055664 72.85626983642578 L 68.9272232055664 64.35626983642578 L 66.0938949584961 53.189605712890625 Z" style="fill: rgb(189, 195, 199); fill-opacity: 1; stroke: rgb(0, 0, 0); stroke-opacity: 1; stroke-width: 0; paint-order: fill;"/><path d="M 54.09389114379883 52.35627365112305 L 52.42722702026367 66.02294158935547 C 52.42722702026367 66.02294158935547 41.09389114379883 67.02294158935547 41.26055908203125 67.02294158935547 C 41.42722702026367 67.02294158935547 40.09389114379883 76.68960571289062 40.09389114379883 76.68960571289062 C 40.09389114379883 76.68960571289062 46.260562896728516 82.02294158935547 46.42722702026367 82.02294158935547 C 46.59389114379883 82.02294158935547 52.76055908203125 84.18960571289062 52.76055908203125 84.18960571289062 L 51.92722702026367 93.68960571289062 L 39.09389114379883 93.18960571289062 L 19.76055908203125 56.0229377746582 L 54.09389114379883 52.35627365112305 Z" style="fill: rgb(189, 195, 199); fill-opacity: 1; stroke: rgb(0, 0, 0); stroke-opacity: 1; stroke-width: 0; paint-order: stroke;"/></g></svg>