<?xml version="1.0" encoding="utf-8"?>
<svg id="master-artboard" viewBox="0 0 64 64" version="1.1" xmlns="http://www.w3.org/2000/svg" x="0px" y="0px" style="enable-background:new 0 0 1400 980;" width="64px" height="64px"><rect id="ee-background" x="0" y="0" width="64" height="64" style="fill: white; fill-opacity: 0; pointer-events: none;"/><path d="M 59.92722702026367 7.856272220611572 L 73.4272232055664 33.35627365112305 L 92.5938949584961 14.35627269744873 L 92.5938949584961 40.35627365112305 L 112.5938949584961 40.35627365112305 L 92.4272232055664 60.5229377746582 L 86.76055908203125 51.5229377746582 L 41.26055908203125 52.0229377746582 L 59.92722702026367 7.856272220611572 Z" style="fill: rgb(189, 195, 199); fill-opacity: 1; stroke: rgb(0, 0, 0); stroke-opacity: 1; stroke-width: 0; paint-order: stroke;" transform="matrix(0.6069301962852478, 0, 0, 0.6069301962852478, -4.277754306793213, -4.644112745920815)"/><path d="M 59.92722702026367 7.856272220611572 L 73.4272232055664 33.35627365112305 L 92.5938949584961 14.35627269744873 L 92.5938949584961 40.35627365112305 L 112.5938949584961 40.35627365112305 L 92.4272232055664 60.5229377746582 L 86.76055908203125 51.5229377746582 L 41.26055908203125 52.0229377746582 L 59.92722702026367 7.856272220611572 Z" style="fill: rgb(189, 195, 199); fill-opacity: 1; stroke: rgb(0, 0, 0); stroke-opacity: 1; stroke-width: 0; paint-order: stroke;" transform="matrix(-0.6069301962852478, 0, 0, 0.6069301962852478, 68.46553802490234, -4.745266596476235)"/><path d="M 26.927227020263672 40.35626983642578 L 27.26055908203125 73.35627746582031 C 26.100561596418263 77.57536048447174 31.260899899568034 85.36340966725488 35.42722702026367 87.68960571289062 C 48.903538849223814 98.52227944606648 49.76655067409559 100.41560297115038 53.42722702026367 112.52294158935547 L 57.59389114379883 86.18960571289062 L 34.92722702026367 75.68960571289062 L 26.927227020263672 40.35626983642578 Z" style="fill: rgb(189, 195, 199); fill-opacity: 1; stroke: rgb(0, 0, 0); stroke-opacity: 1; stroke-width: 0; paint-order: fill;" transform="matrix(0.6069301962852478, 0, 0, 0.6069301962852478, -4.277754306793213, -4.644112745920815)"/><path d="M 26.927227020263672 40.35626983642578 L 27.26055908203125 73.35627746582031 C 26.100561596418263 77.57536048447174 31.260899899568034 85.36340966725488 35.42722702026367 87.68960571289062 C 48.903538849223814 98.52227944606648 49.76655067409559 100.41560297115038 53.42722702026367 112.52294158935547 L 57.59389114379883 86.18960571289062 L 34.92722702026367 75.68960571289062 L 26.927227020263672 40.35626983642578 Z" style="fill: rgb(189, 195, 199); fill-opacity: 1; stroke: rgb(0, 0, 0); stroke-opacity: 1; stroke-width: 0; paint-order: fill;" transform="matrix(-0.6069302558898927, 0, 0, 0.6069302558898927, 68.50971221923828, -4.492385546366364)"/><g transform="matrix(0.08122869580984116, 0, 0, 0.19233468174934387, 23.314790725708008, 35.18695576985677)"><g id="g-1" transform="matrix(1, 0, 0, 1, 0, 0)">
	<g id="g-2">
		<path class="st0" d="M58,49h100v100H58V49z" style="fill: rgb(189, 195, 199);"/>
	</g>
</g></g><g transform="matrix(0.2146665453910828, 0, 0, 0.2146665453910828, 3.239738464355483, -212.86594645182294)"><g id="g-3" transform="matrix(1, 0, 0, 1, 0, 0)">
	<g id="g-4">
		<g>
			
		<path d="M 204.15444946289062 1126.959228515625 L 156.08999633789062 1158.0596923828125 L 155.6187744140625 1191.987548828125 L 145.25193786621094 1263.613037109375 L 115.09384155273438 1130.72900390625 L 100.01480102539062 1080.3084716796875 L 260.2296447753906 1095.387451171875 L 204.15444946289062 1126.959228515625 Z" style="fill: rgb(189, 195, 199); fill-opacity: 1; stroke: rgb(0, 0, 0); stroke-opacity: 1; stroke-width: 0; paint-order: fill;"/><path d="M 194.25881958007812 1108.1103515625 C 214.22244539602357 1109.8429532806367 200.971524425928 1200.6777091785561 140.06851196289062 1194.8148193359375 C 79.16549682617188 1188.951904296875 148.5504608154297 1251.361328125 149.49290466308594 1251.83251953125 C 150.4353485107422 1252.3037109375 220.17593383789062 1191.516357421875 220.17593383789062 1191.516357421875 L 227.7154541015625 1096.8011474609375 C 227.7154541015625 1096.8011474609375 195.20126342773438 1109.9952392578125 194.25881958007812 1108.1103515625 Z" style="fill: rgb(189, 195, 199); fill-opacity: 1; stroke: rgb(0, 0, 0); stroke-opacity: 1; stroke-width: 0; paint-order: stroke;"/></g>
	</g>
</g></g><path d="M 204.15444946289062 1126.959228515625 L 156.08999633789062 1158.0596923828125 L 155.6187744140625 1191.987548828125 L 145.25193786621094 1263.613037109375 L 115.09384155273438 1130.72900390625 L 100.01480102539062 1080.3084716796875 L 260.2296447753906 1095.387451171875 L 204.15444946289062 1126.959228515625 Z" style="fill: rgb(189, 195, 199); fill-opacity: 1; stroke: rgb(0, 0, 0); stroke-opacity: 1; stroke-width: 0; paint-order: fill;" transform="matrix(-0.21466657519340515, 0, 0, 0.21466657519340515, 61.04917526245117, -212.81518046061197)"/><path d="M 194.25881958007812 1108.1103515625 C 214.22244539602357 1109.8429532806367 200.971524425928 1200.6777091785561 140.06851196289062 1194.8148193359375 C 79.16549682617188 1188.951904296875 148.5504608154297 1251.361328125 149.49290466308594 1251.83251953125 C 150.4353485107422 1252.3037109375 220.17593383789062 1191.516357421875 220.17593383789062 1191.516357421875 L 227.7154541015625 1096.8011474609375 C 227.7154541015625 1096.8011474609375 195.20126342773438 1109.9952392578125 194.25881958007812 1108.1103515625 Z" style="fill: rgb(189, 195, 199); fill-opacity: 1; stroke: rgb(0, 0, 0); stroke-opacity: 1; stroke-width: 0; paint-order: stroke;" transform="matrix(-0.2146664261817932, 0, 0, 0.2146664261817932, 60.74570465087888, -212.96708170572916)"/><path d="M 204.15444946289062 1126.959228515625 L 156.08999633789062 1158.0596923828125 L 155.6187744140625 1191.987548828125 L 145.25193786621094 1263.613037109375 L 115.09384155273438 1130.72900390625 L 100.01480102539062 1080.3084716796875 L 260.2296447753906 1095.387451171875 L 204.15444946289062 1126.959228515625 Z" style="fill: rgb(189, 195, 199); fill-opacity: 1; stroke: rgb(0, 0, 0); stroke-opacity: 1; stroke-width: 0; paint-order: fill;" transform="matrix(0.21466638147830963, 0, 0, 0.21466638147830963, 2.9363186359405233, -212.91634623209634)"/></svg>