<?xml version="1.0" encoding="utf-8"?>
<svg id="master-artboard" viewBox="0 0 64 64" version="1.1" xmlns="http://www.w3.org/2000/svg" x="0px" y="0px" style="enable-background:new 0 0 1400 980;" width="64px" height="64px"><defs><radialGradient id="gradient-0" gradientUnits="objectBoundingBox" cx="0.5" cy="0.5" r="0.5">
                <stop offset="0" style="stop-color: #bdc3c7"/>
                <stop offset="1" style="stop-color: #869198"/>
              </radialGradient><radialGradient id="gradient-1" gradientUnits="objectBoundingBox" cx="0.5" cy="0.5" r="0.5">
                <stop offset="0" style="stop-color: #bdc3c7"/>
                <stop offset="1" style="stop-color: #869198"/>
              </radialGradient><radialGradient id="gradient-2" gradientUnits="objectBoundingBox" cx="0.5" cy="0.5" r="0.5">
                <stop offset="0" style="stop-color: #bdc3c7"/>
                <stop offset="1" style="stop-color: #869198"/>
              </radialGradient></defs><rect id="ee-background" x="0" y="0" width="64" height="64" style="fill: white; fill-opacity: 0; pointer-events: none;"/><g transform="matrix(0.5974841045161774, 0, 0, 0.5974841045161774, -358.75461347309067, -464.5093185393009)"><g id="g-1" transform="matrix(1, 0, 0, 1, 0, 0)">
	<g id="g-2">
		<g>
			<path class="st0" d="M654,884c-29.2,0-53-23.8-53-53s23.8-53,53-53s53,23.8,53,53S683.2,884,654,884z M654,784&#10;&#9;&#9;&#9;&#9;c-25.9,0-47,21.1-47,47s21.1,47,47,47s47-21.1,47-47S679.9,784,654,784z" style="fill: rgb(191, 195, 199);"/>
		</g>
	</g>
</g></g><g transform="matrix(0.5440249052803064, 0, 0, 0.5440249052803064, -323.79229717283107, -420.08472397429216)"><g id="g-5" transform="matrix(1, 0, 0, 1, 0, 0)">
	<g id="g-6">
		<g>
			<path class="st0" d="M654,884c-29.2,0-53-23.8-53-53s23.8-53,53-53s53,23.8,53,53S683.2,884,654,884z M654,784&#10;&#9;&#9;&#9;&#9;c-25.9,0-47,21.1-47,47s21.1,47,47,47s47-21.1,47-47S679.9,784,654,784z" style="fill: rgb(191, 195, 199);"/>
		</g>
	</g>
</g></g><g transform="matrix(0.5062890817384268, 0, 0, 0.5062890817384268, -299.1130685764418, -388.72625461099017)"><g id="g-9" transform="matrix(1, 0, 0, 1, 0, 0)">
	<g id="g-10">
		<g>
			<path class="st0" d="M654,884c-29.2,0-53-23.8-53-53s23.8-53,53-53s53,23.8,53,53S683.2,884,654,884z M654,784&#10;&#9;&#9;&#9;&#9;c-25.9,0-47,21.1-47,47s21.1,47,47,47s47-21.1,47-47S679.9,784,654,784z" style="fill: rgb(191, 195, 199);"/>
		</g>
	</g>
</g></g><g transform="matrix(0.35649814036103694, 0, 0, 0.35649814036103694, -51.43839056615716, -53.57737428232393)"><g id="g-11" transform="matrix(1, 0, 0, 1, 0, 0)">
	<g id="g-12">
		<path class="st0" d="M282.5,236.3c2.1,2.1,2.1,5.4,0,7.5c0,0,0,0,0,0l-44.7,44.7c-2.1,2.1-5.4,2.1-7.5,0l-44.7-44.7&#10;&#9;&#9;&#9;c-2.1-2.1-2.1-5.4,0-7.5c0,0,0,0,0,0l44.7-44.7c2.1-2.1,5.4-2.1,7.5,0c0,0,0,0,0,0L282.5,236.3z" style="fill: rgb(191, 195, 199);"/>
	</g>
</g></g><g transform="matrix(0.46855325819654714, 0, 0, 0.46855325819654714, -274.4338399800525, -357.3677852476882)"><g id="g-15" transform="matrix(1, 0, 0, 1, 0, 0)">
	<g id="g-16">
		<g>
			<path class="st0" d="M654,884c-29.2,0-53-23.8-53-53s23.8-53,53-53s53,23.8,53,53S683.2,884,654,884z M654,784&#10;&#9;&#9;&#9;&#9;c-25.9,0-47,21.1-47,47s21.1,47,47,47s47-21.1,47-47S679.9,784,654,784z" style="fill: rgb(191, 195, 199);"/>
		</g>
	</g>
</g></g></svg>