<?xml version="1.0" encoding="utf-8"?>
<svg id="master-artboard" viewBox="0 0 320 114" version="1.1" xmlns="http://www.w3.org/2000/svg" x="0px" y="0px" style="enable-background:new 0 0 336 235.2;" width="320px" height="114px"><rect id="ee-background" x="0" y="0" width="320" height="114" style="fill: white; fill-opacity: 0; pointer-events: none;"/><g transform="matrix(-0.41030758619308466, 1.0718443393707275, 0.15157760679721832, 0.058023903518915176, 317.651123046875, -64.66204833984375)"><g id="g-31" transform="matrix(1, 0, 0, 1, 0, 0)">
	<g id="g-32">
		<path class="st0" d="M 58 49 L 158 49 L 158 149 L 52.60102081298828 149.51805114746094 L 58 49 Z" style="fill: rgb(137, 106, 49); fill-opacity: 1;"/>
	</g>
</g></g><g transform="matrix(0.22584959864616394, -0.08636276423931123, 0.39867341518402105, 1.042536735534668, 62.42893981933593, -37.09053039550781)"><g id="g-15" transform="matrix(1, 0, 0, 1, 0, 0)">
	<g id="g-16">
		<path class="st0" d="M58,49h100v100H58V49z" style="fill: rgb(137, 106, 49); fill-opacity: 1;"/>
	</g>
</g></g><path d="M 289.1125793457031 260.7288818359375 L 252.39749145507812 301.6139831542969 L 207.204833984375 301.3539733886719 L 176.8070068359375 260.6603088378906" style="fill-opacity: 1; stroke: rgb(0, 0, 0); stroke-opacity: 1; stroke-width: 0; paint-order: fill; fill: rgb(137, 106, 49);" transform="matrix(0.26654303073883057, 0, 0, 0.26654303073883057, 40.67715835571289, -69.08477020263672)"/><g transform="matrix(0.3094807565212249, 0, 0, 0.16205011308193207, 117.06295776367186, 89.26993560791016)"><g id="g-19" transform="matrix(1, 0, 0, 1, 0, 0)">
	<g id="g-20">
		<path class="st0" d="M58,49h100v100H58V49z" style="fill: rgb(137, 106, 49); fill-opacity: 1;"/>
	</g>
</g></g><g transform="matrix(-0.41030758619308466, 1.0718443393707275, 0.15157760679721832, 0.058023903518915176, 208.23739624023438, -64.59471130371094)"><g id="g-21" transform="matrix(1, 0, 0, 1, 0, 0)">
	<g id="g-22">
		<path class="st0" d="M 122.32324600219727 48.76312255859375 L 158 49 L 158 149 L 138.13991165161133 148.93218994140625 L 122.32324600219727 48.76312255859375 Z" style="fill: rgb(137, 106, 49); fill-opacity: 1;"/>
	</g>
</g></g><g transform="matrix(0.22584959864616394, -0.08636276423931123, 0.39867341518402105, 1.042536735534668, 117.23463439941406, -37.08762741088868)"><g id="g-17" transform="matrix(1, 0, 0, 1, 0, 0)">
	<g id="g-18">
		<path class="st0" d="M58,49h100v100H58V49z" style="fill: rgb(242, 184, 75);" transform="matrix(1, -1.3877787807814457e-17, 0, 1, -0.09374708950397803, 0.05336056069793926)"/>
	</g>
</g></g><g transform="matrix(0.31032928824424744, 0, 0, 0.16205011308193207, 171.7823486328125, 89.23925781250001)"><g id="g-23" transform="matrix(1, 0, 0, 1, 0, 0)">
	<g id="g-24">
		<path class="st0" d="M58,49h100v100H58V49z" style="fill: rgb(242, 184, 75);"/>
	</g>
</g></g><g transform="matrix(-0.41030758619308466, 1.0718443393707275, 0.15157760679721832, 0.058023903518915176, 263.0059509277344, -64.62537384033202)"><g id="g-25" transform="matrix(1, 0, 0, 1, 0, 0)">
	<g id="g-26">
		<path class="st0" d="M 58 49 L 158 49 L 158 149 L 52.60102081298828 149.51805114746094 L 58 49 Z" style="fill: rgb(242, 184, 75);"/>
	</g>
</g></g><g transform="matrix(0.2258495986461639, -0.0863627642393112, 0.3967814147472381, 1.037589430809021, 172.16175842285153, -36.323440551757805)"><g id="g-27" transform="matrix(1, 0, 0, 1, 0, 0)">
	<g id="g-28">
		<path class="st0" d="M 57.9688720703125 128.73087692260742 L 158.35630416870117 104.35888290405273 L 158 149 L 58 149 L 57.9688720703125 128.73087692260742 Z" style="fill: rgb(137, 106, 49); fill-opacity: 1;"/>
	</g>
</g></g><g transform="matrix(0.3098733723163605, 0, 0, 0.16205011308193207, 226.5234375, 89.13310241699219)"><g id="g-29" transform="matrix(1, 0, 0, 1, 0, 0)">
	<g id="g-30">
		<path class="st0" d="M58,49h100v100H58V49z" style="fill: rgb(137, 106, 49); fill-opacity: 1;" transform="matrix(1, 0, 0, 1, -0.22429635243469193, 0.42890051580354793)"/>
	</g>
</g></g><path d="M 289.1125793457031 260.7289123535156 L 252.39747619628906 301.6139831542969 L 207.204833984375 301.3539733886719 L 176.8070068359375 260.6603088378906" style="fill-opacity: 1; stroke: rgb(0, 0, 0); stroke-opacity: 1; stroke-width: 0; paint-order: fill; fill: rgb(242, 184, 75);" transform="matrix(0.26654303073883057, 0, 0, 0.26654303073883057, 95.436279296875, -69.09461212158203)"/><g transform="matrix(0.9381992816925049, 0, 0, 0.9381992816925049, -558.7037963867188, -28.664018630981445)"><g id="g-3" transform="matrix(1, 0, 0, 1, 0, 0)">
	<g id="g-4">
		<path class="st0" d="M652,46c27.6,0,50,22.4,50,50s-22.4,50-50,50s-50-22.4-50-50S624.4,46,652,46z" style="fill: rgb(44, 62, 80); stroke: rgb(0, 0, 0); stroke-width: 0;"/>
	</g>
</g></g><path d="M 223.17953491210938 414.85595703125 C 229.3265768692356 388.5413421925779 161.21854037881275 454.09018842834695 137.3937530517578 517.3967895507812 L 154.81898498535156 571.0128784179688 C 152.37532920469067 550.9144238601287 238.28640932858343 414.0210813945792 240.6047821044922 453.7276306152344 L 223.17953491210938 414.85595703125 Z" style="fill: rgb(52, 73, 94); fill-opacity: 1; stroke: rgb(0, 0, 0); stroke-opacity: 1; stroke-width: 0; paint-order: stroke;" transform="matrix(0.26654303073883057, 0, 0, 0.26654303073883057, -32.18586730957031, -69.09388732910156)"/><path d="M 411.2827453613281 332.8863220214844 C 411.2827452343048 332.27818351048944 358.7494202970992 361.5565340235335 358.7494201660156 362.1203308105469 C 366.5599965133924 370.0544119914731 369.1567153739096 381.74877880878415 368.8604431152344 392.6731872558594 C 383.7289278173555 381.0751883589281 419.5465400321934 361.29924894396623 429.3067321777344 361.9005126953125 L 411.2827453613281 332.8863220214844 Z" style="fill: rgb(52, 73, 94); fill-opacity: 1; stroke: rgb(0, 0, 0); stroke-opacity: 1; stroke-width: 0; paint-order: fill;" transform="matrix(0.26654303073883057, 0, 0, 0.26654303073883057, -32.18586730957031, -69.09388732910156)"/><path d="M 454.36444091796875 374.6492004394531 C 431.92463555056395 378.57855341143926 411.61720178143855 385.1932255347363 363.58514404296875 421.9071960449219 C 358.08234525295063 445.54114507178264 343.010427097879 475.32599093010356 296.1051025390625 504.1141357421875 L 295.0060729980469 582.5844116210938 C 301.7457447853121 555.1576333569033 360.9263894778326 489.6323973972528 492.3906555175781 494.00311279296875 C 515.4108080665762 489.0449632562575 469.7483518305567 371.9553820431184 454.36444091796875 374.6492004394531 Z" style="fill: rgb(52, 73, 94); fill-opacity: 1; stroke: rgb(0, 0, 0); stroke-opacity: 1; stroke-width: 0; paint-order: fill;" transform="matrix(0.26654303073883057, 0, 0, 0.26654303073883057, -32.18586730957031, -69.09388732910156)"/><path d="M 482.9542541503906 567.3455200195312 C 505.7019659400466 563.059791844885 436.98931699653645 550.6633630252857 420.36541748046875 553.7953491210938 C 429.41436301344544 580.1313847915401 373.4563137888249 631.7823711889426 337.7739562988281 584.7671508789062 C 340.7050765073518 581.9903104348465 300.55611578201996 606.034524351048 293.03692626953125 613.157958984375 L 296.6933288574219 634.6661376953125 L 427.248046875 637.4622192382812 L 482.9542541503906 567.3455200195312 Z" style="fill: rgb(52, 73, 94); fill-opacity: 1; stroke: rgb(0, 0, 0); stroke-opacity: 1; stroke-width: 0; paint-order: stroke;" transform="matrix(0.26654303073883057, 0, 0, 0.26654303073883057, -32.18586730957031, -69.09388732910156)"/><g transform="matrix(0.9667715430259703, 0, 0, 0.9667715430259703, -579.7600097656249, -741.6982421874999)"><g id="g-1" transform="matrix(1, 0, 0, 1, 0, 0)">
	<g id="g-2">
		<g>
			<path class="st0" d="M654,884c-29.2,0-53-23.8-53-53s23.8-53,53-53s53,23.8,53,53S683.2,884,654,884z M654,784&#10;&#9;&#9;&#9;&#9;c-25.9,0-47,21.1-47,47s21.1,47,47,47s47-21.1,47-47S679.9,784,654,784z" style="fill: rgb(137, 106, 49); stroke-opacity: 1; stroke: rgb(137, 106, 49); stroke-width: 1;"/>
		</g>
	</g>
</g></g><path d="M 298.1340026855469 260.734619140625 L 298.27264404296875 624.167724609375 L 500.0474853515625 624.29345703125 L 450.086669921875 684.7882080078125 L 177.10797119140625 684.7882080078125 L 206.95335388183594 645.087158203125 L 207.204833984375 301.3539733886719 L 176.8070068359375 260.6603088378906" style="fill-opacity: 1; stroke: rgb(0, 0, 0); stroke-opacity: 1; stroke-width: 0; paint-order: fill; fill: rgb(242, 184, 75);" transform="matrix(0.26654303073883057, 0, 0, 0.26654303073883057, -32.18586730957031, -69.09388732910156)"/></svg>