<?xml version="1.0" encoding="utf-8"?>
<svg id="master-artboard" viewBox="0 0 64 64" version="1.1" xmlns="http://www.w3.org/2000/svg" x="0px" y="0px" style="enable-background:new 0 0 1400 980;" width="64px" height="64px"><rect id="ee-background" x="0" y="0" width="64" height="64" style="fill: rgb(127, 140, 141); fill-opacity: 1; pointer-events: none;"/><g transform="matrix(0.610268060623845, 0, 0, 0.610268060623845, -35.129475820577596, -476.9635476591255)"><g id="g-1" transform="matrix(1, 0, 0, 1, 0, 0)">
	<g id="g-2">
		<g>
			<path class="st0" d="M163,887H57V781h106V887z M63,881h94v-94H63V881z" style="fill: rgb(0, 0, 0); stroke: rgb(0, 0, 0); stroke-width: 0; fill-opacity: 1;"/>
		</g>
	</g>
</g></g><g transform="matrix(0.6927084350180189, 0, 0, 0.6927084350180189, 9.807065563480133, 9.833334251748964)"><g transform="matrix(1, 0, 0, 1, -0.000002543131586207892, -1.7763568394002505e-15)"><g transform="matrix(0.8088235855102539, 0, 0, 0.8205130100250244, -19.850181579589858, -19.69231287638347)"><metadata><!--?xpacket begin="﻿" id="W5M0MpCehiHzreSzNTczkc9d"?-->

                                                                                                    
                                                                                                    
                                                                                                    
                                                                                                    
                                                                                                    
                                                                                                    
                                                                                                    
                                                                                                    
                                                                                                    
                                                                                                    
                                                                                                    
                                                                                                    
                                                                                                    
                                                                                                    
                                                                                                    
                                                                                                    
                                                                                                    
                                                                                                    
                                                                                                    
                                                                                                    
                           
<!--?xpacket end="w"?--></metadata><path id="Helmet" class="cls-1" d="M93.143,53.25C93.143,31.768,64,24,64,24S34.857,31.745,34.857,53.25,34.906,77.506,30,82.5c0,0,6.984,19.5,24.286,19.5,0,0-4.857-4.8-4.857-29.25,0,0-9.714-2.08-9.714-19.5C52.051,53.25,59.143,63,59.143,63V82.5L64,87.375,68.857,82.5V63a24.269,24.269,0,0,1,19.429-9.75c0,17.166-9.714,19.5-9.714,19.5,0,24.35-4.857,29.25-4.857,29.25C91.016,102,98,82.5,98,82.5,92.711,77.115,93.143,74.732,93.143,53.25Z" style="fill: rgb(236, 240, 241); fill-rule: evenodd;"/><path d="M 61.44377136230469 42.75651550292969" style="fill: rgb(236, 240, 241); fill-opacity: 1; stroke: rgb(0, 0, 0); stroke-opacity: 1; stroke-width: 0; paint-order: fill;"/></g></g></g></svg>