<?xml version="1.0" encoding="utf-8"?>
<svg id="master-artboard" viewBox="0 0 64 64" version="1.1" xmlns="http://www.w3.org/2000/svg" x="0px" y="0px" style="enable-background:new 0 0 1400 980;" width="64px" height="64px"><g transform="matrix(1, 0, 0, 1, -0.000002543131586207892, -7.105427357601002e-15)"><g transform="matrix(6.4, 0, 0, 6.4, -7.105427357601002e-15, -3.552713678800501e-15)"><title>Blue_Side</title><g id="Layer_2" data-name="Layer 2"><path class="cls-1" d="M0,2V8a2,2,0,0,0,2,2H8a2,2,0,0,0,1.23-.44L.44.77A2,2,0,0,0,0,2Z" style="fill: rgb(189, 195, 199);"/><path class="cls-2" d="M10,8V2A2,2,0,0,0,8,0H2A2,2,0,0,0,.44.77L9.23,9.56A2,2,0,0,0,10,8Z" style="fill: rgb(231, 76, 60);"/><path d="M 7.27281379699707 12.371969223022461" style="fill: rgb(67, 68, 71); fill-opacity: 1; stroke: rgb(0, 0, 0); stroke-opacity: 1; stroke-width: 0; paint-order: fill;"/></g></g></g></svg>