<?xml version="1.0" encoding="utf-8"?>
<svg id="master-artboard" viewBox="0 0 64 64" version="1.1" xmlns="http://www.w3.org/2000/svg" x="0px" y="0px" style="enable-background:new 0 0 1400 980;" width="64px" height="64px"><rect id="ee-background" x="0" y="0" width="64" height="64" style="fill: white; fill-opacity: 0; pointer-events: none;"/><g transform="matrix(0.34331434965133667, 0, 0, 0.34331434965133667, -192.64374287923175, -251.83199564615884)"><g id="g-3" transform="matrix(1, 0, 0, 1, 0, 0)">
	<g id="g-4">
		<g>
			<path class="st0" d="M 654 884 C 624.8 884 601.4485473632812 848.539111328125 601.4485473632812 819.339111328125 C 601.4485473632812 790.139111328125 624.8 778 654 778 C 683.2 778 707.4485473632812 790.139111328125 707.4485473632812 819.339111328125 C 707.4485473632812 848.539111328125 683.2 884 654 884 Z M 654 784 C 628.1 784 607.4485473632812 793.439111328125 607.4485473632812 819.339111328125 C 607.4485473632812 845.239111328125 628.1 878 654 878 C 679.9 878 701.4485473632812 845.239111328125 701.4485473632812 819.339111328125 C 701.4485473632812 793.439111328125 679.9 784 654 784 Z" style="fill: rgb(191, 195, 199);" transform="matrix(0.6565141124521818, 0, 0, 0.6565141124521818, 224.34532744498924, 290.7875979369794)"/>
		<path style="fill: rgb(191, 195, 199); fill-opacity: 1; stroke: rgb(0, 0, 0); stroke-opacity: 1; stroke-width: 0; paint-order: fill;" transform="matrix(0.6565141124521818, 0, 0, 0.6565141124521818, 224.34532744498924, 290.7875979369794)"/></g>
	</g>
</g></g><g transform="matrix(0.1843356639146805, 0, 0, 0.1843356639146805, -88.671635945638, -88.30626932779948)"><g transform="matrix(1, 0, 0, 1, 0, 0)">
	<path d="M 620 671 L 654 620 L 688 671 L 654 722 Z" class="st0" style="fill: rgb(191, 195, 199);"/>
</g></g><path d="M 40.76055908203125 10.85627269744873 C 40.49465710931231 6.33594007315306 13.115565245562554 32.89138508588796 14.093892097473145 49.5229377746582 L 14.093893051147461 64.02293395996094 C 17.13817604780701 63.19435274437007 29.198082462902537 70.5378172298099 27.42722511291504 71.02294158935547 L 40.59389114379883 36.35627365112305 C 36.87963216392711 34.2034725693994 39.37678173469978 10.02877576659533 40.76055908203125 10.85627269744873 Z" style="fill: rgb(191, 195, 199); fill-opacity: 1; stroke: rgb(0, 0, 0); stroke-opacity: 1; stroke-width: 0; paint-order: fill;" transform="matrix(0.6065231561660767, 0, 0, 0.6065231561660767, -4.507489522298187, -2.9290568033854214)"/><path d="M 40.76055908203125 10.85627269744873 C 40.49465710931231 6.33594007315306 13.115565245562554 32.89138508588796 14.093892097473145 49.5229377746582 L 14.093893051147461 64.02293395996094 C 17.13817604780701 63.19435274437007 29.198082462902537 70.5378172298099 27.42722511291504 71.02294158935547 L 40.59389114379883 36.35627365112305 C 36.87963216392711 34.2034725693994 39.37678173469978 10.02877576659533 40.76055908203125 10.85627269744873 Z" style="fill: rgb(191, 195, 199); fill-opacity: 1; stroke: rgb(0, 0, 0); stroke-opacity: 1; stroke-width: 0; paint-order: fill;" transform="matrix(-0.6065231561660767, 0, 0, 0.6065231561660767, 68.28032938639323, -2.9259564081827847)"/><path d="M 99.4272232055664 76.02293395996094 L 112.5938949584961 87.52294158935547 C 111.25585489207822 94.28520395260342 91.89648983834732 107.23700538789655 92.76055908203125 102.52294158935547 L 99.4272232055664 76.02293395996094 Z" style="fill: rgb(191, 195, 199); fill-opacity: 1; stroke: rgb(0, 0, 0); stroke-opacity: 1; stroke-width: 0; paint-order: stroke;" transform="matrix(0.6065231561660767, 0, 0, 0.6065231561660767, -4.507489522298187, -2.9290568033854214)"/><path d="M 99.4272232055664 76.02293395996094 L 112.5938949584961 87.52294158935547 C 111.25585489207822 94.28520395260342 91.89648983834732 107.23700538789655 92.76055908203125 102.52294158935547 L 99.4272232055664 76.02293395996094 Z" style="fill: rgb(191, 195, 199); fill-opacity: 1; stroke: rgb(0, 0, 0); stroke-opacity: 1; stroke-width: 0; paint-order: stroke;" transform="matrix(-0.6065231561660767, 0, 0, 0.6065231561660767, 68.43123118082683, -2.982475916544594)"/><g transform="matrix(0.3852754831314087, 0, 0, 0.3852754831314087, -220.086186726888, -284.98304239908856)"><g id="g-7" transform="matrix(1, 0, 0, 1, 0, 0)">
	<g id="g-8">
		<g>
			<path class="st0" d="M654,884c-29.2,0-53-23.8-53-53s23.8-53,53-53s53,23.8,53,53S683.2,884,654,884z M654,784&#10;&#9;&#9;&#9;&#9;c-25.9,0-47,21.1-47,47s21.1,47,47,47s47-21.1,47-47S679.9,784,654,784z" style="fill: rgb(191, 195, 199);"/>
		</g>
	</g>
</g></g><g transform="matrix(0.35094505548477173, 0, 0, 0.3719252943992615, -197.6340840657552, -273.6869608561198)"><g id="g-11" transform="matrix(1, 0, 0, 1, 0, 0)">
	<g id="g-12">
		<g>
			<path class="st0" d="M654,884c-29.2,0-53-23.8-53-53s23.8-53,53-53s53,23.8,53,53S683.2,884,654,884z M654,784&#10;&#9;&#9;&#9;&#9;c-25.9,0-47,21.1-47,47s21.1,47,47,47s47-21.1,47-47S679.9,784,654,784z" style="fill: rgb(191, 195, 199);"/>
		</g>
	</g>
</g></g><g transform="matrix(0.3261489570140839, 0, 0, 0.34564703702926636, -181.36064656575522, -252.27198282877603)"><g id="g-13" transform="matrix(1, 0, 0, 1, 0, 0)">
	<g id="g-14">
		<g>
			<path class="st0" d="M654,884c-29.2,0-53-23.8-53-53s23.8-53,53-53s53,23.8,53,53S683.2,884,654,884z M654,784&#10;&#9;&#9;&#9;&#9;c-25.9,0-47,21.1-47,47s21.1,47,47,47s47-21.1,47-47S679.9,784,654,784z" style="fill: rgb(191, 195, 199);"/>
		</g>
	</g>
</g></g><g transform="matrix(0.30275240540504456, 0, 0, 0.32085195183753973, -166.38948567708331, -231.63538614908856)"><g id="g-15" transform="matrix(1, 0, 0, 1, 0, 0)">
	<g id="g-16">
		<g>
			<path class="st0" d="M654,884c-29.2,0-53-23.8-53-53s23.8-53,53-53s53,23.8,53,53S683.2,884,654,884z M654,784&#10;&#9;&#9;&#9;&#9;c-25.9,0-47,21.1-47,47s21.1,47,47,47s47-21.1,47-47S679.9,784,654,784z" style="fill: rgb(191, 195, 199);"/>
		</g>
	</g>
</g></g><g transform="matrix(0.37527239322662354, 0, 0, 0.37527239322662354, -213.3862813313802, -278.46253458658856)"><g id="g-17" transform="matrix(1, 0, 0, 1, 0, 0)">
	<g id="g-18">
		<g>
			<path class="st0" d="M 654 884 C 624.8 884 601.4485473632812 848.539111328125 601.4485473632812 819.339111328125 C 601.4485473632812 790.139111328125 624.8 778 654 778 C 683.2 778 707.4485473632812 790.139111328125 707.4485473632812 819.339111328125 C 707.4485473632812 848.539111328125 683.2 884 654 884 Z M 654 784 C 628.1 784 607.4485473632812 793.439111328125 607.4485473632812 819.339111328125 C 607.4485473632812 845.239111328125 628.1 878 654 878 C 679.9 878 701.4485473632812 845.239111328125 701.4485473632812 819.339111328125 C 701.4485473632812 793.439111328125 679.9 784 654 784 Z" style="fill: rgb(191, 195, 199);" transform="matrix(0.6565141124521818, 0, 0, 0.6565141124521818, 224.34532744498924, 290.7875979369794)"/>
		<path style="fill: rgb(191, 195, 199); fill-opacity: 1; stroke: rgb(0, 0, 0); stroke-opacity: 1; stroke-width: 0; paint-order: fill;" transform="matrix(0.6565141124521818, 0, 0, 0.6565141124521818, 224.34532744498924, 290.7875979369794)"/></g>
	</g>
</g></g><g transform="matrix(0.3985137939453125, 0, 0, 0.3985137939453125, -228.88924153645831, -297.9002176920573)"><g id="g-19" transform="matrix(1, 0, 0, 1, 0, 0)">
	<g id="g-20">
		<g>
			<path class="st0" d="M 654 884 C 624.8 884 601.4485473632812 848.539111328125 601.4485473632812 819.339111328125 C 601.4485473632812 790.139111328125 624.8 778 654 778 C 683.2 778 707.4485473632812 790.139111328125 707.4485473632812 819.339111328125 C 707.4485473632812 848.539111328125 683.2 884 654 884 Z M 654 784 C 628.1 784 607.4485473632812 793.439111328125 607.4485473632812 819.339111328125 C 607.4485473632812 845.239111328125 628.1 878 654 878 C 679.9 878 701.4485473632812 845.239111328125 701.4485473632812 819.339111328125 C 701.4485473632812 793.439111328125 679.9 784 654 784 Z" style="fill: rgb(191, 195, 199);" transform="matrix(0.6565141124521818, 0, 0, 0.6565141124521818, 224.34532744498924, 290.7875979369794)"/>
		<path style="fill: rgb(191, 195, 199); fill-opacity: 1; stroke: rgb(0, 0, 0); stroke-opacity: 1; stroke-width: 0; paint-order: fill;" transform="matrix(0.6565141124521818, 0, 0, 0.6565141124521818, 224.34532744498924, 290.7875979369794)"/></g>
	</g>
</g></g><g transform="matrix(0.4130398631095887, 0, 0, 0.4130398631095887, -238.28824361165363, -310.7567850748698)"><g id="g-21" transform="matrix(1, 0, 0, 1, 0, 0)">
	<g id="g-22">
		<g>
			<path class="st0" d="M 654 884 C 624.8 884 601.4485473632812 848.539111328125 601.4485473632812 819.339111328125 C 601.4485473632812 790.139111328125 624.8 778 654 778 C 683.2 778 707.4485473632812 790.139111328125 707.4485473632812 819.339111328125 C 707.4485473632812 848.539111328125 683.2 884 654 884 Z M 654 784 C 628.1 784 607.4485473632812 793.439111328125 607.4485473632812 819.339111328125 C 607.4485473632812 845.239111328125 628.1 878 654 878 C 679.9 878 701.4485473632812 845.239111328125 701.4485473632812 819.339111328125 C 701.4485473632812 793.439111328125 679.9 784 654 784 Z" style="fill: rgb(191, 195, 199);" transform="matrix(0.6565141124521818, 0, 0, 0.6565141124521818, 224.34532744498924, 290.7875979369794)"/>
		<path style="fill: rgb(191, 195, 199); fill-opacity: 1; stroke: rgb(0, 0, 0); stroke-opacity: 1; stroke-width: 0; paint-order: fill;" transform="matrix(0.6565141124521818, 0, 0, 0.6565141124521818, 224.34532744498924, 290.7875979369794)"/></g>
	</g>
</g></g><g transform="matrix(0.2784663736820221, 0, 0, 0.30516871809959417, -150.13203938802084, -218.21230570475262)"><g id="g-25" transform="matrix(1, 0, 0, 1, 0, 0)">
	<g id="g-26">
		<g>
			<path class="st0" d="M654,884c-29.2,0-53-23.8-53-53s23.8-53,53-53s53,23.8,53,53S683.2,884,654,884z M654,784&#10;&#9;&#9;&#9;&#9;c-25.9,0-47,21.1-47,47s21.1,47,47,47s47-21.1,47-47S679.9,784,654,784z" style="fill: rgb(191, 195, 199);"/>
		</g>
	</g>
</g></g><g transform="matrix(0.27498590946197515, 0, 0, 0.30135461688041687, -148.80974324544272, -215.83744303385413)"><g id="g-27" transform="matrix(1, 0, 0, 1, 0, 0)">
	<g id="g-28">
		<g>
			<path class="st0" d="M654,884c-29.2,0-53-23.8-53-53s23.8-53,53-53s53,23.8,53,53S683.2,884,654,884z M654,784&#10;&#9;&#9;&#9;&#9;c-25.9,0-47,21.1-47,47s21.1,47,47,47s47-21.1,47-47S679.9,784,654,784z" style="fill: rgb(191, 195, 199);"/>
		</g>
	</g>
</g></g><g transform="matrix(0.3204272389411926, 0, 0, 0.3204272389411926, -176.05820210774738, -233.01497904459634)"><g id="g-31" transform="matrix(1, 0, 0, 1, 0, 0)">
	<g id="g-32">
		<g>
			<path class="st0" d="M654,884c-29.2,0-53-23.8-53-53s23.8-53,53-53s53,23.8,53,53S683.2,884,654,884z M654,784&#10;&#9;&#9;&#9;&#9;c-25.9,0-47,21.1-47,47s21.1,47,47,47s47-21.1,47-47S679.9,784,654,784z" style="fill: rgb(191, 195, 199);"/>
		</g>
	</g>
</g></g></svg>