<?xml version="1.0" encoding="utf-8"?>
<svg id="master-artboard" viewBox="0 0 64 64" version="1.1" xmlns="http://www.w3.org/2000/svg" x="0px" y="0px" style="enable-background:new 0 0 1400 980;" width="64px" height="64px"><g transform="matrix(0.9999999403953552, 0, 0, 0.9999999403953552, -1.4210854715202004e-14, 0.0000019073486328125)"><rect id="ee-background" x="0" y="0" width="64" height="64" style="fill: white; fill-opacity: 0; pointer-events: none;"/><g transform="matrix(1.4038466215133667, 0, 0, 1.4038466215133667, -10.269824028015137, -10.269824981689453)"><g id="Layer_25" class="st0" style="display: none;">
	<path d="M 0 0 H 60.220001 V 60.220001 H 0 V 0 Z" class="st1" style="display: inline; fill: rgb(189, 195, 199);"/>
</g><g id="demon" class="st0" style="display: none;">
	<g class="st1" style="display: inline;">
		<path class="st2" d="M22.47,35.16c-3.76-2.31-6.22-8.39-2.79-21.84c0,0-5.42,5.91-8.05,11.99c-2.63,6.08-4.27,12.64,2.3,18.06&#10;&#9;&#9;&#9;c6.57,5.42,9.69,3.45,11.33,1.64C26.91,43.21,28.06,38.6,22.47,35.16z" style="fill: rgb(189, 195, 199);"/>
		<path class="st2" d="M48.59,25.31c-2.63-6.08-8.05-11.99-8.05-11.99c3.43,13.45,0.97,19.53-2.79,21.84&#10;&#9;&#9;&#9;c-5.59,3.44-4.43,8.05-2.79,9.85s4.76,3.78,11.33-1.64C52.85,37.95,51.21,31.38,48.59,25.31z" style="fill: rgb(189, 195, 199);"/>
	</g>
</g><g id="dragon" class="st0" style="display: none;">
	<path class="st1" d="M49.03,32.73c0.96-0.51,1.55-0.95,4.14-1.07c0.72-0.03,1.49-0.27,2.22-0.26c-4.07-5.33-8.19-6.01-9.73-6.06&#10;&#9;&#9;c-0.24-1.12,0.18-2.36,1.3-3.72c0.69-0.84,1.52-1.56,2.29-2.33c-0.07,0-0.14,0.01-0.21,0.02c0,0,0,0,0,0&#10;&#9;&#9;c-4.14-1.37-7.8,0.06-9.08,0.68c-0.06-0.41,0.04-0.92,0.33-1.5c0.54-1.07,1.2-2.11,1.98-3.03c2.79-3.29,1.74-3.31,5.31-5.74&#10;&#9;&#9;c0.5-0.34,1.02-0.64,1.53-0.97c-7.52,1.17-9.2,2.41-14.8,7.2c2.06-3.38,1.29-4.26,3.49-7.88c-0.57,0.17-0.87,0.22-1.14,0.34&#10;&#9;&#9;c-4.07,1.8-4.53,2.04-6.82,5.86c-1.23,2.04-2.4,4.19-4.58,5.23c-2.36,1.13-4.08,2.88-5.76,4.74c-0.12,0.13-0.23,0.26-0.37,0.36&#10;&#9;&#9;c-0.8,0.6-1.56,1.27-2.43,1.76c-1.8,1.02-3.01,0.42-4.1-0.1l0,0c-1.46-0.74-3.76-2.69-5.57,0.4C7,26.69,7,26.71,7,26.72&#10;&#9;&#9;c-4.14,5.23-1.68,8.43,1.92,12.3c1.01,1.98,2.39,4.36,4.13,6.63c-0.42-2.1-1.18-6.13-0.89-8.86c0.9,1.15,3.07,3.73,5.94,5.86&#10;&#9;&#9;c-0.72-1.4-2.09-4.13-2.35-6.06c0.37-0.28,0.78-0.49,1.22-0.64c0.33,0.93,0.66,1.85,0.99,2.77c0.14-0.02,0.28-0.03,0.42-0.05&#10;&#9;&#9;c0.29-0.39,0.56-0.78,0.86-1.15c1.32-1.68,2.78-1.97,4.76-2.85c2.16-0.96,4.21-1.83,6.05-0.4c-0.36,2.57-1.79,4.04-4.27,5.1&#10;&#9;&#9;c-2.14,0.91,1.1,3.02-1.16,2.75c-1.39-0.16-2.77-0.43-4.16-0.66c-0.39,1.44,0.32,2.42,1.33,3.37c-2.31,0.75-5.63,0.49-7.44-0.42&#10;&#9;&#9;c2,3.15,3.49,4.31,8,5.49c-0.07-0.43,3.2,2.61,3.21,2.21c1.56-0.34,2.9-2.91,3.19-3.78c0.29-0.87,1.35-4.06,1.35-4.07&#10;&#9;&#9;c0.64-1.09,1.21-1.14,3.13-1.89c1.89-1.73,4.52-2.31,7.59-1.61c2.8,0.64,2.5,0.11,4.95,1.58c1.57,0.94,3.07,2,4.55,2.98&#10;&#9;&#9;c0.31-6.03-2.05-9.26-3.41-10.62C47.13,33.83,47.91,33.32,49.03,32.73z" style="display: inline; fill: rgb(189, 195, 199);"/>
</g><g id="exile" class="st0" style="display: none;">
	<g class="st1" style="display: inline;">
		<path d="M 42.610001 35.610001 A 6.25 6.25 0 0 1 36.360001 41.860001 A 6.25 6.25 0 0 1 30.110001 35.610001 A 6.25 6.25 0 0 1 36.360001 29.360001 A 6.25 6.25 0 0 1 42.610001 35.610001 Z" class="st2" style="fill: rgb(189, 195, 199);"/>
		<path class="st2" d="M30.11,9.86c-11.18,0-20.25,9.07-20.25,20.25s9.07,20.25,20.25,20.25c1.92,0,3.78-0.29,5.54-0.79&#10;&#9;&#9;&#9;c-7.4-0.37-13.29-6.47-13.29-13.96c0-7.73,6.27-14,14-14c6.86,0,12.56,4.94,13.76,11.46c0.14-0.97,0.24-1.95,0.24-2.96&#10;&#9;&#9;&#9;C50.36,18.93,41.29,9.86,30.11,9.86z" style="fill: rgb(189, 195, 199);"/>
	</g>
</g><g id="Glacial" class="st0" style="display: none;">
	<g class="st1" style="display: inline;">
		<path d="M 22.440000534057617 48.47999954223633 L 22.440000534057617 48.47999954223633 L 22.440000534057617 48.47999954223633 Z" class="st2" style="fill: rgb(189, 195, 199);"/>
		<path d="M 52.220001220703125 27.540000915527344 L 43.959999084472656 27.540000915527344 L 49.060001373291016 22.440000534057617 L 45.43000030517578 18.799999237060547 L 36.689998626708984 27.540000915527344 L 32.68000030517578 27.540000915527344 L 32.68000030517578 23.540000915527344 L 41.41999816894531 14.800000190734863 L 37.790000915527344 11.15999984741211 L 37.790000915527344 11.15999984741211 L 32.68000030517578 16.260000228881836 L 32.68000030517578 8 L 27.540000915527344 8 L 27.540000915527344 16.260000228881836 L 22.440000534057617 11.15999984741211 L 18.799999237060547 14.800000190734863 L 27.540000915527344 23.540000915527344 L 27.540000915527344 27.540000915527344 L 24.1200008392334 27.540000915527344 L 15.380000114440918 18.799999237060547 L 11.75 22.440000534057617 L 11.75 22.440000534057617 L 16.850000381469727 27.540000915527344 L 8 27.540000915527344 L 8 32.68000030517578 L 16.850000381469727 32.68000030517578 L 11.75 37.790000915527344 L 15.380000114440918 41.41999816894531 L 24.1200008392334 32.68000030517578 L 27.540000915527344 32.68000030517578 L 27.540000915527344 36.099998474121094 L 18.799999237060547 44.84000015258789 L 22.440000534057617 48.47999954223633 L 27.540000915527344 43.369998931884766 L 27.540000915527344 52.220001220703125 L 32.68000030517578 52.220001220703125 L 32.68000030517578 43.369998931884766 L 37.790000915527344 48.47999954223633 L 41.41999816894531 44.84000015258789 L 32.68000030517578 36.099998474121094 L 32.68000030517578 32.68000030517578 L 36.689998626708984 32.68000030517578 L 45.43000030517578 41.41999816894531 L 49.060001373291016 37.790000915527344 L 49.060001373291016 37.790000915527344 L 43.959999084472656 32.68000030517578 L 52.220001220703125 32.68000030517578 Z" class="st2" style="fill: rgb(189, 195, 199);"/>
	</g>
</g><g id="robot" class="st0" style="display: none;">
	<g class="st1" style="display: inline;">
		<path class="st2" d="M4.65,33.29c0,2.36,1.93,4.29,4.29,4.29h0.67c0.29-2.86,0.79-5.71,1.33-8.57H8.94&#10;&#9;&#9;&#9;C6.58,29.01,4.65,30.94,4.65,33.29z" style="fill: rgb(189, 195, 199);"/>
		<path class="st2" d="M51.28,29.01h-2.01c0.54,2.86,1.04,5.71,1.33,8.57h0.67c2.36,0,4.29-1.93,4.29-4.29&#10;&#9;&#9;&#9;C55.57,30.94,53.64,29.01,51.28,29.01z" style="fill: rgb(189, 195, 199);"/>
		<path class="st2" d="M30.61,15.05h-1H17.63c0,0-5.63,12.24-5.63,30.12c5.66,0,14.63,0,17.61,0c0.63,0,1,0,1,0&#10;&#9;&#9;&#9;c2.98,0,11.96,0,17.61,0c0-17.88-5.63-30.12-5.63-30.12H30.61z M37.81,20.74c1.45,0,2.63,1.18,2.63,2.63&#10;&#9;&#9;&#9;c0,1.45-1.18,2.63-2.63,2.63c-1.45,0-2.63-1.18-2.63-2.63C35.18,21.92,36.36,20.74,37.81,20.74z M22.41,20.74&#10;&#9;&#9;&#9;c1.45,0,2.63,1.18,2.63,2.63c0,1.45-1.18,2.63-2.63,2.63s-2.63-1.18-2.63-2.63C19.77,21.92,20.95,20.74,22.41,20.74z M41.98,39.78&#10;&#9;&#9;&#9;H30.61h-1H18.24v-5.88h11.37h1h11.37V39.78z" style="fill: rgb(189, 195, 199);"/>
	</g>
</g><g id="impreial" class="st0" style="display: none;">
	<g class="st1" style="display: inline;">
		<path d="M 17.25 24.450000762939453 L 17.25 50.18000030517578 L 30.110000610351562 37.310001373291016 L 42.970001220703125 50.18000030517578 L 42.970001220703125 24.450000762939453 L 42.970001220703125 19.510000228881836 L 17.25 19.510000228881836 Z" class="st2" style="fill: rgb(189, 195, 199);"/>
		<path d="M 17.25 10.05 H 42.969999 V 16.61 H 17.25 V 10.05 Z" class="st2" style="fill: rgb(189, 195, 199);"/>
	</g>
</g><g id="noble" class="st0" style="display: none;">
	<path class="st3" d="M40.71,28.68l-10.6-16.74l-10.6,16.74L10.67,20v22.65c0,0,7.32,5.63,19.44,5.63s19.44-5.63,19.44-5.63V20&#10;&#9;&#9;L40.71,28.68z" style="display: inline; fill: rgb(189, 195, 199);"/>
</g><g id="ninja" class="st0" style="display: none;">
	<path class="st3" d="M39.38,27.81l3.05-5.06L37.39,4.94l-9.58,15.9l-5.06-3.05L4.94,22.83l15.9,9.58l-3.05,5.06l5.03,17.81&#10;&#9;&#9;l9.58-15.9l5.06,3.05l17.81-5.03L39.38,27.81z M30.11,33.91c-2.1,0-3.8-1.7-3.8-3.8c0-2.1,1.7-3.8,3.8-3.8c2.1,0,3.8,1.7,3.8,3.8&#10;&#9;&#9;C33.91,32.21,32.21,33.91,30.11,33.91z" style="display: inline; fill: rgb(189, 195, 199);"/>
</g><g id="pirate" class="st0" style="display: none;">
	<path class="st3" d="M43.56,32.71c0,0-1.23,6.49-8.56,7.38h-4.07c-0.36-0.96-0.67-1.93-0.94-2.92c5.51,0.61,8.63,0.62,8.63,0.62&#10;&#9;&#9;S28.54,23.06,40.18,9.77c-3.6,0.96-7.22,2.07-10.29,3.07c0.07-0.34,0.14-0.65,0.2-0.91c0.08-0.37,0.15-0.66,0.2-0.85&#10;&#9;&#9;c0.02-0.1,0.04-0.17,0.05-0.22c0.01-0.02,0.01-0.04,0.01-0.05l0-0.01l0,0l-2.14-0.58l0,0c-0.01,0.02-0.35,1.3-0.74,3.42&#10;&#9;&#9;c-3.41,1.14-5.69,1.97-5.69,1.97s-6.77,10.78-1.19,20.25c2.59,0.44,4.94,0.78,7.03,1.05c0.26,1.07,0.57,2.14,0.94,3.19h-3.85&#10;&#9;&#9;c0,0-2.02-1.52-5.56-3.05c-7.58-0.34-12.99-3.79-12.99-3.79s0.3,0.84,0.49,1.77c4.08,3.39,1.87,6.2,9.05,13.33&#10;&#9;&#9;c15.54,4.72,29.56,0,29.56,0l2.71-7.18l2.61-0.39c0,0,3.44-7.82,3.44-10.03C51.93,31.58,45.97,32.46,43.56,32.71z" style="display: inline; fill: rgb(189, 195, 199);"/>
</g><g id="phantom" class="st0" style="display: none;">
	<path class="st3" d="M44.49,37.49c-1.26-1.73-3.08-3.1-5.05-3.96c-1.98-0.88-4.07-1.21-6.03-1.27c-0.57-0.03-1.1-0.01-1.63,0.02&#10;&#9;&#9;c0.51-0.68,1.07-1.4,1.68-2.13c1.5-1.81,3.2-3.69,4.98-5.56c0.85-0.91,1.6-2,2.14-3.21c2.56-5.75-0.03-12.48-5.78-15.03&#10;&#9;&#9;c-5.75-2.56-12.48,0.03-15.03,5.78l-0.1,0.23c-1.21,2.73-2.4,5.51-3.49,8.54c-0.54,1.51-1.07,3.08-1.54,4.79&#10;&#9;&#9;c-0.46,1.72-0.9,3.56-1.12,5.9c-0.11,1.14-0.14,2.52,0.07,4.12c0.2,1.55,0.78,3.68,2.17,5.6c0.33,0.48,0.72,0.92,1.14,1.33&#10;&#9;&#9;c0.21,0.21,0.42,0.41,0.64,0.6c0.22,0.17,0.44,0.34,0.67,0.5c0.93,0.68,1.81,1.07,2.69,1.41c0.81,0.26,1.65,0.48,2.33,0.55&#10;&#9;&#9;c0.75,0.12,1.35,0.12,1.97,0.12c2.39-0.05,4.12-0.54,5.76-1.04c0.82-0.24,1.58-0.56,2.31-0.83c0.38-0.17,0.8-0.42,1.16-0.53&#10;&#9;&#9;c1.54-0.61,2.75-0.76,3.95-0.2c1.19,0.56,2.25,2.2,2.21,4.04c-0.02,0.91-0.28,1.84-0.85,2.69c-0.56,0.85-1.43,1.59-2.51,2.13&#10;&#9;&#9;c-1.07,0.55-2.34,0.89-3.66,1.03c-1.32,0.19-2.7,0.13-4.09,0.04c1.27,0.54,2.59,1.07,4.01,1.36c1.41,0.33,2.92,0.47,4.48,0.27&#10;&#9;&#9;c1.56-0.19,3.19-0.73,4.63-1.76c1.44-1.02,2.64-2.52,3.37-4.24C47.4,45.32,47.04,40.95,44.49,37.49z M32.81,18.82&#10;&#9;&#9;c1-1.49,2.45-2.26,3.24-1.72c0.79,0.53,0.63,2.17-0.37,3.66c-1,1.49-2.45,2.26-3.24,1.72C31.65,21.95,31.81,20.31,32.81,18.82z&#10;&#9;&#9; M27.32,14.41c-0.41,1.74-1.49,2.98-2.42,2.76s-1.36-1.81-0.95-3.55c0.41-1.74,1.49-2.98,2.42-2.76&#10;&#9;&#9;C27.3,11.08,27.73,12.66,27.32,14.41z" style="display: inline; fill: rgb(189, 195, 199);"/>
</g><g id="wild" class="st0" style="display: none;">
	<g class="st1" style="display: inline;">
		<path class="st2" d="M34.64,25.42l-0.9-0.67l-0.9-0.67c-6.58-4.95-8.34,3.63-17.15,2.27c-8.81-1.35-12.94,8.98-4.49,12.68&#10;&#9;&#9;&#9;c3.51,1.3,3.21,1.02,7.8,4.47c4.59,3.45,4.95,3.12,7.17,6.13c5.9,7.09,14.79,0.99,11.05-7.1S41.22,30.36,34.64,25.42z" style="fill: rgb(189, 195, 199);"/>
		<path class="st2" d="M23.84,16.82c0.86-4.26,2.06-7.06-2.31-8.62c-4.37-1.56-7.93,8.76-4.9,12.37&#10;&#9;&#9;&#9;C19.64,24.18,22.82,21.87,23.84,16.82z" style="fill: rgb(189, 195, 199);"/>
		<path class="st2" d="M36.92,15.95c1.51-3.95,1.12-6.9-1.51-8.3c-2.63-1.4-8.03,5.85-5.37,10.49&#10;&#9;&#9;&#9;C31.22,20.19,35.98,18.41,36.92,15.95z" style="fill: rgb(189, 195, 199);"/>
		<path class="st2" d="M53.13,31.95c-2.72-3.76-5.07-1.84-8.93,0.17c-4.57,2.39-5.91,6.08-1.6,7.98&#10;&#9;&#9;&#9;C46.92,42,55.85,35.71,53.13,31.95z" style="fill: rgb(189, 195, 199);"/>
		<path class="st2" d="M49.2,18.02c-2.07-2.14-5.02-1.69-8.39,0.86c-2.11,1.59-2.5,6.65-0.19,7.21&#10;&#9;&#9;&#9;C45.81,27.36,51.27,20.15,49.2,18.02z" style="fill: rgb(189, 195, 199);"/>
	</g>
</g><g id="void" class="st0" style="display: none;">
	<g class="st1" style="display: inline;">
		<path class="st2" d="M14.43,40.18c1.9,2.15,4.31,3.48,6.71,4.29c2.42,0.78,4.91,1.02,7.37,0.8c2.46-0.24,4.94-0.87,7.32-2.35&#10;&#9;&#9;&#9;c1.17-0.75,2.35-1.75,3.23-3.15c0.89-1.37,1.35-3.16,1.21-4.73c-0.07-0.7-0.21-1.28-0.35-1.91c-0.23-0.65-0.36-1.26-0.72-1.88&#10;&#9;&#9;&#9;c-0.56-1.24-1.58-2.36-2.71-3.08c-1.16-0.71-2.4-1.06-3.57-1.1c-1.17-0.04-2.26,0.12-3.3,0.52l0.09,0.85&#10;&#9;&#9;&#9;c1.86,0.51,3.57,1.46,4.21,2.66c0.32,0.59,0.5,1.14,0.5,1.8c0.05,0.29-0.03,0.68-0.02,0.99c-0.06,0.35-0.12,0.75-0.18,1.04&#10;&#9;&#9;&#9;c-0.17,0.4-0.39,0.56-0.69,0.76c-0.31,0.19-0.73,0.42-1.29,0.59c-1.12,0.36-2.61,0.55-4.08,0.46c-2.97-0.12-5.97-1.05-7.68-2.45&#10;&#9;&#9;&#9;c-0.44-0.35-0.79-0.72-1.11-1.19c-0.39-0.72-0.8-1.44-1.1-2.21c-0.65-1.52-1.08-3.14-1.26-4.77c-0.28-3.23,0.34-6.51,2.33-8.93&#10;&#9;&#9;&#9;c1.89-2.49,5.08-4.22,8.58-4.98c6.91-1.71,15.06,0.92,20.48,6.32l0.69-0.51c-2.32-3.41-5.65-5.96-9.4-7.76&#10;&#9;&#9;&#9;c-1.88-0.89-3.89-1.6-5.99-1.97c-2.09-0.39-4.28-0.54-6.44-0.3c-1.09,0.06-2.15,0.33-3.22,0.54c-0.54,0.1-1.06,0.31-1.59,0.47&#10;&#9;&#9;&#9;c-0.53,0.18-1.07,0.31-1.58,0.57c-2.1,0.82-4.08,2.17-5.77,3.85c-1.69,1.69-2.96,3.83-3.74,6.07c-0.8,2.24-1.16,4.6-1.18,6.92&#10;&#9;&#9;&#9;c0,2.32,0.34,4.6,0.9,6.84c0.27,1.12,0.66,2.21,1.07,3.3C12.71,37.85,13.5,39.12,14.43,40.18z" style="fill: rgb(189, 195, 199);"/>
		<path class="st2" d="M49.12,26.98c-0.27-1.12-0.66-2.21-1.07-3.3c-0.54-1.3-1.34-2.57-2.27-3.64c-1.9-2.15-4.31-3.48-6.71-4.29&#10;&#9;&#9;&#9;c-2.43-0.78-4.91-1.02-7.37-0.8c-2.46,0.24-4.94,0.87-7.32,2.35c-1.17,0.75-2.35,1.75-3.23,3.15c-0.89,1.37-1.35,3.16-1.21,4.73&#10;&#9;&#9;&#9;c0.07,0.7,0.21,1.28,0.35,1.91c0.23,0.65,0.36,1.26,0.72,1.88c0.56,1.24,1.58,2.36,2.71,3.08c1.16,0.71,2.4,1.06,3.57,1.1&#10;&#9;&#9;&#9;c1.17,0.04,2.26-0.12,3.3-0.52l-0.09-0.85c-1.86-0.51-3.57-1.46-4.21-2.66c-0.32-0.59-0.5-1.14-0.5-1.8&#10;&#9;&#9;&#9;c-0.05-0.29,0.03-0.68,0.02-0.99c0.06-0.35,0.12-0.75,0.18-1.04c0.17-0.4,0.39-0.56,0.69-0.76c0.31-0.19,0.73-0.42,1.29-0.59&#10;&#9;&#9;&#9;c1.12-0.36,2.61-0.55,4.08-0.46c2.97,0.12,5.97,1.05,7.68,2.45c0.44,0.35,0.79,0.72,1.11,1.19c0.39,0.72,0.8,1.44,1.1,2.21&#10;&#9;&#9;&#9;c0.65,1.52,1.08,3.14,1.26,4.77c0.28,3.23-0.34,6.51-2.33,8.93c-1.89,2.49-5.08,4.22-8.58,4.98c-6.91,1.71-15.05-0.92-20.48-6.32&#10;&#9;&#9;&#9;l-0.69,0.51c2.32,3.41,5.65,5.96,9.4,7.76c1.88,0.89,3.89,1.6,5.99,1.97c2.09,0.39,4.28,0.54,6.44,0.3&#10;&#9;&#9;&#9;c1.09-0.06,2.15-0.33,3.22-0.54c0.54-0.1,1.06-0.31,1.59-0.47c0.53-0.18,1.07-0.31,1.58-0.57c2.1-0.82,4.08-2.17,5.77-3.85&#10;&#9;&#9;&#9;c1.69-1.69,2.96-3.83,3.74-6.07c0.8-2.24,1.16-4.6,1.18-6.92C50.02,31.49,49.68,29.21,49.12,26.98z" style="fill: rgb(189, 195, 199);"/>
	</g>
</g><g id="yordle" class="st0" style="display: none;">
	<path id="Path_3248_2_" class="st4" d="M52.61,12.61l-12.5,2.5c-6.25-3.33-13.75-3.33-20,0l-12.5-2.5l2.5,12.5l-2.5,7.5&#10;&#9;&#9;c3,6,11.5,15,22.5,15s18.5-8,22.5-15l-2.5-7.5L52.61,12.61z M15.11,30.11v-2.5c0,0,2-5,5-5s5,5,5,5v2.5&#10;&#9;&#9;c-2.07-2.76-5.99-3.32-8.75-1.25C15.89,29.22,15.47,29.64,15.11,30.11z M37.61,35.11c-1.73,4.14-6.48,6.1-10.63,4.38&#10;&#9;&#9;c-1.98-0.82-3.55-2.4-4.38-4.38v-2.5c4.44,3.33,10.56,3.33,15,0V35.11z M45.11,30.11c-1.75-2.76-5.41-3.58-8.17-1.83&#10;&#9;&#9;c-0.74,0.47-1.36,1.09-1.83,1.83v-2.5c0,0,1.5-5,5-5s5,5,5,5V30.11z" style="display: inline; fill-rule: evenodd; clip-rule: evenodd; fill: rgb(189, 195, 199);"/>
</g><g id="hextech" class="st0" style="display: none;">
	<g class="st1" style="display: inline;">
		
			<path d="M 27.129999 18.139999 H 33.419999 V 24.429999 H 27.129999 V 18.139999 Z" transform="matrix(0.7071 -0.7071 0.7071 0.7071 -6.1811 27.645)" class="st2" style="fill: rgb(189, 195, 199);"/>
		<path class="st2" d="M30.28,4.92L13.74,21.46l13,13v17.3l3.53,3.54l3.53-3.54v-17.3l13-13L30.28,4.92z M30.28,29.48l-8.19-8.19&#10;&#9;&#9;&#9;l8.19-8.19l7.49,7.49l0.71,0.71L30.28,29.48z" style="fill: rgb(189, 195, 199);"/>
		<path class="st2" d="M17.56,31.98l-6-5.56c-0.01,0.02-0.01,0.03-0.01,0.05C11,27.79,9.59,28.5,8.24,28.21L8.1,28.29&#10;&#9;&#9;&#9;c-0.21,0.82-0.38,1.66-0.5,2.51l0.1,0.13c1.36,0.25,2.39,1.44,2.39,2.87c0,1.43-1.03,2.62-2.39,2.87L7.6,36.8&#10;&#9;&#9;&#9;c0.12,0.85,0.28,1.69,0.5,2.51l0.14,0.09c1.35-0.29,2.76,0.41,3.31,1.74c0.55,1.32,0.05,2.81-1.11,3.56l-0.04,0.16&#10;&#9;&#9;&#9;c0.43,0.74,0.91,1.45,1.42,2.13l0.16,0.02c1.14-0.78,2.7-0.67,3.71,0.34c1.01,1.01,1.12,2.58,0.34,3.71l0.02,0.16&#10;&#9;&#9;&#9;c0.68,0.51,1.39,0.99,2.13,1.42l0.16-0.04c0.75-1.16,2.24-1.66,3.56-1.11c0.1,0.04,0.2,0.1,0.29,0.15v-8.61&#10;&#9;&#9;&#9;C17.33,39.45,17,35.05,17.56,31.98z" style="fill: rgb(189, 195, 199);"/>
		<path class="st2" d="M50.14,33.8c0-1.43,1.03-2.62,2.39-2.87l0.1-0.13c-0.12-0.85-0.28-1.69-0.5-2.51l-0.14-0.09&#10;&#9;&#9;&#9;c-1.35,0.29-2.76-0.41-3.3-1.74c-0.01-0.02-0.01-0.03-0.01-0.05l-6,5.56c0.56,3.07,0.23,7.47-4.65,11.07v8.61&#10;&#9;&#9;&#9;c0.1-0.05,0.19-0.11,0.29-0.15c1.32-0.55,2.81-0.05,3.56,1.11l0.16,0.04c0.74-0.43,1.45-0.91,2.13-1.42l0.02-0.16&#10;&#9;&#9;&#9;c-0.78-1.14-0.67-2.7,0.34-3.71c1.01-1.01,2.58-1.12,3.71-0.34l0.16-0.02c0.51-0.68,0.99-1.39,1.42-2.13l-0.04-0.16&#10;&#9;&#9;&#9;c-1.16-0.75-1.66-2.24-1.11-3.56c0.55-1.32,1.95-2.03,3.3-1.74l0.14-0.09c0.21-0.82,0.38-1.66,0.5-2.51l-0.1-0.13&#10;&#9;&#9;&#9;C51.17,36.42,50.14,35.23,50.14,33.8z" style="fill: rgb(189, 195, 199);"/>
	</g>
</g><g id="assassin" class="st0" style="display: none;">
	<g class="st1" style="display: inline;">
		<path class="st2" d="M43.85,20.25C41.35,6.13,30.11,5.76,30.11,5.76S18.87,6.13,16.37,20.25S8.76,35.61,8.76,35.61&#10;&#9;&#9;&#9;s3.74,13.44,16.2,18.86c0,0-6.37-10.39-6.37-18.16c0-4.21,1.14-11.19,11.53-11.19c10.39,0,11.53,6.97,11.53,11.19&#10;&#9;&#9;&#9;c0,7.77-6.37,18.16-6.37,18.16c12.46-5.42,16.2-18.86,16.2-18.86S46.35,34.36,43.85,20.25z" style="fill: rgb(189, 195, 199);"/>
		<path class="st2" d="M30.11,28.25c0,0-7.03-0.19-8.81,4.78c1.97,5.62,4.42,12.18,8.81,12.18c4.4,0,6.84-6.56,8.81-12.18&#10;&#9;&#9;&#9;C37.14,28.06,30.11,28.25,30.11,28.25z" style="fill: rgb(189, 195, 199);"/>
	</g>
</g><g id="blademaster" class="st0" style="display: none;">
	<g class="st1" style="display: inline;">
		<path d="M 36.31999969482422 36.5 L 36.31999969482422 10.5 L 30.110000610351562 2.5 L 23.899999618530273 10.5 L 23.899999618530273 36.5 L 30.110000610351562 36.5 Z" class="st2" style="fill: rgb(189, 195, 199);"/>
		<path class="st2" d="M41.52,38.67h-8.31h-3.1h-3.1H18.7c0,0-5.01,2.83-2.6,6.83c1.98-2.25,7.42-3.02,10.91-3.28v8.1l-2.24,2.28&#10;&#9;&#9;&#9;c0,0,0.93,4.33,5.34,5.11c4.4-0.78,5.34-5.11,5.34-5.11l-2.24-2.28v-8.1c3.49,0.26,8.93,1.03,10.91,3.28&#10;&#9;&#9;&#9;C46.53,41.5,41.52,38.67,41.52,38.67z" style="fill: rgb(189, 195, 199);"/>
	</g>
</g><g id="brawler" class="st0" style="display: none;">
	<g class="st1" style="display: inline;">
		<path d="M 31.860000610351562 46.189998626708984 L 45.189998626708984 48.689998626708984 L 45.689998626708984 43.029998779296875 L 29.690000534057617 42.279998779296875 Z" class="st2" style="fill: rgb(189, 195, 199);"/>
		<path d="M 34.61000061035156 11.529999732971191 L 12.1899995803833 22.530000686645508 L 15.609999656677246 38.529998779296875 L 20.100000381469727 38.529998779296875 L 19.690000534057617 27.190000534057617 L 23.139999389648438 38.529998779296875 L 27.690000534057617 38.529998779296875 L 27.690000534057617 24.360000610351562 L 31.18000030517578 38.529998779296875 L 35.900001525878906 38.529998779296875 L 37.11000061035156 20.780000686645508 L 39.380001068115234 38.529998779296875 L 46.11000061035156 38.529998779296875 L 48.029998779296875 15.109999656677246 Z" class="st2" style="fill: rgb(189, 195, 199);"/>
	</g>
</g><g id="elementalist" class="st0" style="display: none;">
	<path class="st3" d="M39.36,19c1.2,5.76-3.44,7.91-3.44,7.91s2.92-13.25-12.04-18.58c0,0,4.13,7.4-3.18,13.42&#10;&#9;&#9;c-7.31,6.02-10.15,16.77-2.41,24.94c7.74,8.17,19.78,6.19,25.46-2.41C49.42,35.69,45.72,25.45,39.36,19z M30.08,45.91&#10;&#9;&#9;c-4.34,0-6.74-4.09-3.21-8.04c3.36-3.75,3.19-5.71,3.19-5.71s1.1,0.49,3.8,5.09C36.56,41.86,34.42,45.91,30.08,45.91z" style="display: inline; fill: rgb(189, 195, 199);"/>
</g><g id="guardian" class="st0" style="display: none;">
	<path class="st3" d="M32.99,8.95l-2.88,27.63V5.5c0,0-6.38,7.37-17.34,8.82c0,10.8,6.15,30.81,17.34,40.4&#10;&#9;&#9;c11.19-9.59,17.34-29.6,17.34-40.4C40.82,13.45,35.87,10.48,32.99,8.95z" style="display: inline; fill: rgb(189, 195, 199);"/>
</g><g id="gunslinger" class="st0" style="display: none;">
	<g class="st1" style="display: inline;">
		<g>
			<path d="M 42.43000030517578 15.170000076293945 L 39.349998474121094 10.15999984741211 L 38.52000045776367 10.569999694824219 L 34.939998626708984 12.710000038146973 L 31.6200008392334 14.690000534057617 L 37.45000076293945 18.15999984741211 Z" class="st2" style="fill: rgb(189, 195, 199);"/>
		</g>
		<g>
			<path class="st2" d="M22.85,19.91l-10.76,6.41l-0.72,3.51c0,0-8.19,6.71-0.08,18.27c1.01,1.26,2,1.87,2.93,2.09&#10;&#9;&#9;&#9;&#9;c1.68-0.51,3.95-1.72,6.87-4.26c0.44-1.73-0.92-3.79-2.27-5.31c-1.04-0.74-1.81-1.6-2.28-2.21c0,0-0.01-0.01-0.01-0.01l0,0&#10;&#9;&#9;&#9;&#9;c-0.15-0.2-0.28-0.38-0.37-0.5c-0.03-0.04-0.07-0.08-0.1-0.12c-0.02-0.03-0.02-0.05-0.03-0.08C16.02,37.65,16,37.63,16,37.63&#10;&#9;&#9;&#9;&#9;l0.01-0.01c-0.44-0.98,0.22-2.36,1.57-3.16c1.84-0.98,3.41,1.07,3.41,1.07l7.5-4.42l-3.14-5.68l3.35-2.01L22.85,19.91z" style="fill: rgb(189, 195, 199);"/>
		</g>
		<g>
			<path class="st2" d="M48.85,29.83l-0.72-3.51L25.28,12.71l-3.44-2.27l-0.83-0.41l-3.23,5.14l17.09,10.26l-3.14,5.68l7.5,4.42&#10;&#9;&#9;&#9;&#9;c0,0,1.57-2.05,3.41-1.07c1.34,0.8,2,2.18,1.57,3.16l0.01,0.01c0,0-0.02,0.03-0.04,0.07c-0.01,0.03-0.02,0.06-0.03,0.08&#10;&#9;&#9;&#9;&#9;c-0.03,0.05-0.07,0.08-0.1,0.12c-0.09,0.13-0.22,0.31-0.37,0.5l0,0c0,0-0.01,0.01-0.01,0.01c-0.47,0.61-1.24,1.47-2.28,2.21&#10;&#9;&#9;&#9;&#9;c-1.35,1.53-2.71,3.58-2.27,5.31c2.92,2.54,5.19,3.74,6.87,4.26c0.94-0.22,1.93-0.83,2.93-2.09&#10;&#9;&#9;&#9;&#9;C57.04,36.53,48.85,29.83,48.85,29.83z" style="fill: rgb(189, 195, 199);"/>
		</g>
	</g>
</g><g id="knight" class="st0" style="display: none;">
	<g class="st1" style="display: inline;">
		<path d="M45.01,20.56c-1.03-5.88-5.45-10.59-11.18-12.04V4.35H26.4v4.17c-5.73,1.45-10.15,6.16-11.18,12.04l14.89-5.72&#10;&#9;&#9;&#9;L45.01,20.56z" style="fill: rgb(189, 195, 199);"/>
		<path d="M 14.979999542236328 43.27000045776367 L 14.979999542236328 47.130001068115234 L 30.110000610351562 55.869998931884766 L 45.2400016784668 47.130001068115234 L 45.2400016784668 43.27000045776367 L 30.110000610351562 49.09000015258789 Z" style="fill: rgb(189, 195, 199);"/>
		<path d="M45.01,24.26l-14.89-5.72l-14.89,5.72l-2.76,1.06v13.57l2.53,0.97l15.13,5.81l15.13-5.81l2.52-0.97V25.32L45.01,24.26z&#10;&#9;&#9;&#9; M19.23,35.58c0,0.35-0.11,0.68-0.29,0.95l-3.08-0.57c-0.03-0.12-0.04-0.25-0.04-0.38v-6.96c0-0.16,0.02-0.32,0.07-0.47l3-0.56&#10;&#9;&#9;&#9;c0.22,0.29,0.35,0.64,0.35,1.03V35.58z M27.62,37.58c0,0.19-0.03,0.38-0.09,0.55l-3.32-0.62V26.63c0-0.01,0-0.02,0-0.03L27.5,26&#10;&#9;&#9;&#9;c0.08,0.2,0.12,0.41,0.12,0.64V37.58z M36.02,37.51l-3.32,0.62c-0.06-0.17-0.09-0.36-0.09-0.55V26.63c0-0.22,0.04-0.44,0.12-0.64&#10;&#9;&#9;&#9;l3.29,0.61c0,0.01,0,0.02,0,0.03V37.51z M44.41,35.58c0,0.13-0.02,0.26-0.04,0.38l-3.08,0.57c-0.18-0.27-0.29-0.6-0.29-0.95v-6.96&#10;&#9;&#9;&#9;c0-0.39,0.13-0.74,0.35-1.03l3,0.56c0.04,0.15,0.07,0.31,0.07,0.47V35.58z" style="fill: rgb(189, 195, 199);"/>
	</g>
</g><g id="ranger" class="st0" style="display: none;">
	<path class="st3" d="M44.66,29.19l10.46-11.38l0,0l0,0l0,0l-15.96-1.17l2.66,2.49l-2.53,0.94c-0.67-1.13-1.45-2.19-2.34-3.13&#10;&#9;&#9;c-0.98-1.05-2.06-1.97-3.21-2.74c-1.14-0.79-2.34-1.44-3.57-1.98c-2.46-1.08-5.02-1.72-7.57-2.02c-1.28-0.15-2.55-0.22-3.83-0.19&#10;&#9;&#9;c-1.27,0.03-2.54,0.12-3.79,0.38c2.38,0.84,4.65,1.71,6.82,2.71c1.27,0.58,2.49,1.2,3.66,1.87L5.11,34.06l27.55,7.87&#10;&#9;&#9;c-1.57,2.85-3.62,5.61-5.97,8.29c4.78-1.69,9.04-5.04,11.95-9.61c0.76-1.13,1.32-2.39,1.86-3.66c0.22-0.66,0.44-1.32,0.64-2&#10;&#9;&#9;c0.11-0.33,0.19-0.67,0.24-1.02l0.18-1.04l0.17-1.05c0.05-0.35,0.03-0.7,0.05-1.06c0.02-0.71,0.04-1.42,0.03-2.12l-0.27-2.1&#10;&#9;&#9;c-0.01-0.06-0.02-0.11-0.02-0.17l2.86-0.83L44.66,29.19z M27.85,16.45c1.84,1.26,3.46,2.69,4.7,4.3c0.36,0.47,0.69,0.95,0.99,1.44&#10;&#9;&#9;l-19.68,7.27l13.92-13.05C27.8,16.42,27.83,16.44,27.85,16.45z M35.76,29.1l0.06,1.54c0,0.26,0.04,0.52,0.02,0.78&#10;&#9;&#9;c-0.03,0.26-0.05,0.51-0.07,0.77l-0.05,0.78c-0.01,0.26-0.03,0.52-0.1,0.78c-0.11,0.51-0.2,1.03-0.28,1.56&#10;&#9;&#9;c-0.31,1.02-0.55,2.07-0.99,3.09c-0.15,0.38-0.32,0.76-0.49,1.14L14.9,34.11l20.7-6L35.76,29.1z" style="display: inline; fill: rgb(189, 195, 199);"/>
</g><g id="shapeshifter" class="st0" style="display: none;">
	<g class="st1" style="display: inline;">
		<path class="st2" d="M28.29,12.37c-5.76,0-10.42,4.67-10.42,10.42c0,3.6,1.83,6.78,4.6,8.65c-7,1.64-12.22,7.91-12.22,15.41&#10;&#9;&#9;&#9;c0,0.34,0.03,0.67,0.05,1h17.99V31.18l0,0V12.37z" style="fill: rgb(189, 195, 199);"/>
		<path class="st2" d="M37.75,31.44c2.78-1.87,4.6-5.05,4.6-8.65c0-5.76-4.67-10.42-10.42-10.42v2.81c4.21,0,7.62,3.41,7.62,7.62&#10;&#9;&#9;&#9;s-3.41,7.62-7.62,7.62v0.77l0,0v2.96c0.59-0.08,1.2-0.14,1.81-0.14c7.19,0,13.02,5.83,13.02,13.02c0,0.28-0.02,0.55-0.04,0.82h3.2&#10;&#9;&#9;&#9;c0.02-0.33,0.05-0.66,0.05-1C49.97,39.35,44.75,33.08,37.75,31.44z" style="fill: rgb(189, 195, 199);"/>
	</g>
</g><g id="sorcerer">
	<g>
		<path d="M 15.149999618530273 40.470001220703125 L 28.31999969482422 47.189998626708984 L 28.31999969482422 18.690000534057617 L 15.149999618530273 12.029999732971191 Z" class="st2" style="fill: rgb(189, 195, 199);"/>
		<path d="M 12.649999618530273 17.030000686645508 L 7.400000095367432 15.210000038146973 L 7.650000095367432 45.029998779296875 L 23.149999618530273 48.189998626708984 L 12.739999771118164 42.529998779296875 Z" class="st2" style="fill: rgb(189, 195, 199);"/>
		<path d="M 45.06999969482422 12.029999732971191 L 31.899999618530273 18.690000534057617 L 31.899999618530273 47.189998626708984 L 45.06999969482422 40.470001220703125 Z" class="st2" style="fill: rgb(189, 195, 199);"/>
		<path d="M 47.56999969482422 17.030000686645508 L 47.47999954223633 42.529998779296875 L 37.06999969482422 48.189998626708984 L 52.56999969482422 45.029998779296875 L 52.81999969482422 15.210000038146973 Z" class="st2" style="fill: rgb(189, 195, 199);"/>
	</g>
</g></g></g></svg>