<?xml version="1.0" encoding="utf-8"?>
<svg id="master-artboard" viewBox="0 0 64 64" version="1.1" xmlns="http://www.w3.org/2000/svg" x="0px" y="0px" style="enable-background:new 0 0 1400 980;" width="64px" height="64px"><g transform="matrix(0.9999999403953552, 0, 0, 0.9999999403953552, -1.4210854715202004e-14, 0.0000019073486328125)"><g transform="matrix(1.3882861137390137, 0, 0, 1.3852813243865967, -14.708774248758957, -14.488745689392093)"><path class="st0" d="M46.7,56.6l-9.9-9.9l9.9-9.9l9.9,9.9v9.9H46.7z M53.2,28.6l-4.9,4.9L43,28.3L20.4,56.6h-9.9v-9.9l28.3-22.7&#10;&#9;l-5.4-5.4L18.5,33.5l-4.6-4.7l5.2-5.2l-8.4-8.4l4.6-4.7l8.4,8.4l5.2-5.2l4.6,4.6l4.8-4.8l5.2,5.2l8.3-8.3l4.6,4.7l-8.3,8.3&#10;&#9;L53.2,28.6z" style="fill-rule: evenodd; clip-rule: evenodd; fill: rgb(189, 195, 199);" transform="matrix(1, 0, 0, 1, 0.12005210238528718, 0.12031250528874793)"/><path d="M 33.414649963378906 68.85150909423828" style="fill: rgb(178, 178, 178); fill-opacity: 1; stroke: rgb(0, 0, 0); stroke-opacity: 1; stroke-width: 0; paint-order: fill;" transform="matrix(1, 0, 0, 1, 0.12005210238528718, 0.12031250528874793)"/><path d="M 75.4795913696289 117.34210205078125" style="fill: rgb(189, 195, 199); fill-opacity: 1; stroke: rgb(0, 0, 0); stroke-opacity: 1; stroke-width: 0; paint-order: fill;"/></g></g></svg>