<?xml version="1.0" encoding="utf-8"?>
<svg id="master-artboard" viewBox="0 0 64 64" version="1.1" xmlns="http://www.w3.org/2000/svg" x="0px" y="0px" style="enable-background:new 0 0 1400 980;" width="64px" height="64px"><rect id="ee-background" x="0" y="0" width="64" height="64" style="fill: white; fill-opacity: 0; pointer-events: none;"/><path d="M 483.6070556640625 410.31219482421875 L 425.0321350097656 351.2610778808594 L 599.3281860351562 184.58456420898438 L 769.3381958007812 352.6897277832031 L 716.9541015625 410.31219482421875 L 697.4291381835938 394.5969543457031 L 599.8043823242188 319.35443115234375 L 501.703369140625 396.025634765625 L 483.6070556640625 410.31219482421875 Z" style="fill: rgb(189, 195, 199); fill-opacity: 1; stroke: rgb(236, 240, 241); stroke-opacity: 1; stroke-width: 0; paint-order: stroke;" transform="matrix(0.07867656206222061, 0, 0, 0.07867656206222061, -15.85987540430639, -14.3602399952558)"/><path d="M 599.3281860351562 705.5677490234375 L 864.105712890625 453.1718444824219 L 716.9541625976562 410.3121643066406 L 697.42919921875 394.59698486328125 L 599.3281860351562 488.41204833984375 L 501.7033386230469 395.5494079589844 L 484.0832214355469 410.3121643066406 L 335.0268249511719 453.6480712890625 L 599.3281860351562 705.5677490234375 Z" style="fill: rgb(189, 195, 199); fill-opacity: 1; stroke: rgb(0, 0, 0); stroke-opacity: 0.88; stroke-width: 0; paint-order: fill;" transform="matrix(0.07867656206222061, 0, 0, 0.07867656206222061, -15.85987540430639, -14.3602399952558)"/><path d="M 410.33056640625 605.3952026367188 L 599.6240844726562 787.5286254882812 L 788.6937866210938 605.6189575195312 C 788.6937866210938 605.6189575195312 731.6372680664062 994.4984741210938 731.4135131835938 994.4984741210938 C 731.1897583007812 994.4984741210938 466.49212646484375 995.3934936523438 466.49212646484375 995.3934936523438 L 410.33056640625 605.3952026367188 Z" style="fill: rgb(189, 195, 199); fill-opacity: 1; stroke: rgb(0, 0, 0); stroke-opacity: 0.88; stroke-width: 0; paint-order: fill;" transform="matrix(0.07867656206222061, 0, 0, 0.07867656206222061, -15.85987540430639, -14.3602399952558)"/></svg>