<?xml version="1.0" encoding="utf-8"?>
<svg id="master-artboard" viewBox="0 0 32 30" version="1.1" xmlns="http://www.w3.org/2000/svg" x="0px" y="0px" style="enable-background:new 0 0 336 235.2;" width="32px" height="30px"><rect id="ee-background" x="0" y="0" width="32" height="30" style="fill: white; fill-opacity: 0; pointer-events: none;"/><g transform="matrix(0.05816801264882088, -0.02224286086857319, 0.10267886519432066, 0.26850607991218567, -6.291055043538421, -9.234450022379555)"><g id="g-17" transform="matrix(1, 0, 0, 1, 0, 0)">
	<g id="g-18">
		<path class="st0" d="M58,49h100v100H58V49z" style="fill: rgb(242, 184, 75);" transform="matrix(1, -1.3877787807814457e-17, 0, 1, -0.09374708950397803, 0.05336056069793926)"/>
	</g>
</g></g><g transform="matrix(0.0799258127808571, 0, 0, 0.04173624888062478, 7.757776419321715, 23.301198323567704)"><g id="g-23" transform="matrix(1, 0, 0, 1, 0, 0)">
	<g id="g-24">
		<path class="st0" d="M58,49h100v100H58V49z" style="fill: rgb(242, 184, 75);"/>
	</g>
</g></g><g transform="matrix(-0.10567527264356615, 0.2760549187660218, 0.0390390083193779, 0.01494422182440758, 31.252531687418625, -16.32683054606119)"><g id="g-25" transform="matrix(1, 0, 0, 1, 0, 0)">
	<g id="g-26">
		<path class="st0" d="M 58 49 L 158 49 L 158 149 L 52.60102081298828 149.51805114746094 L 58 49 Z" style="fill: rgb(242, 184, 75);"/>
	</g>
</g></g><path d="M 289.1125793457031 260.7289123535156 L 252.39747619628906 301.6139831542969 L 207.204833984375 301.3539733886719 L 176.8070068359375 260.6603088378906" style="fill-opacity: 1; stroke: rgb(0, 0, 0); stroke-opacity: 1; stroke-width: 0; paint-order: fill; fill: rgb(242, 184, 75);" transform="matrix(0.06864862143993379, 0, 0, 0.06864862143993379, -11.905248006184891, -17.47788302103679)"/></svg>