<?xml version="1.0" encoding="utf-8"?>
<svg id="master-artboard" viewBox="0 0 61 30" version="1.1" xmlns="http://www.w3.org/2000/svg" x="0px" y="0px" style="enable-background:new 0 0 1400 980;" width="61px" height="30px"><rect id="ee-background" x="0" y="0" width="61" height="30" style="fill: white; fill-opacity: 0; pointer-events: none;" transform="matrix(1, 0, 0, 1, 2, 0)"/><g transform="matrix(-0.1073509380221367, 0.280432015657425, 0.03965799883008003, 0.015181080438196663, 60.568421681722, -16.769080479939777)"><g id="g-31" transform="matrix(1, 0, 0, 1, 0, 0)">
	<g id="g-32">
		<path class="st0" d="M 58 49 L 158 49 L 158 149 L 52.60102081298828 149.51805114746094 L 58 49 Z" style="fill: rgb(137, 106, 49); fill-opacity: 1;"/>
	</g>
</g></g><g transform="matrix(0.05909024178981781, -0.022595535963773727, 0.1043069288134575, 0.2727640867233277, -6.20667950312297, -9.555407842000328)"><g id="g-15" transform="matrix(1, 0, 0, 1, 0, 0)">
	<g id="g-16">
		<path class="st0" d="M58,49h100v100H58V49z" style="fill: rgb(137, 106, 49); fill-opacity: 1;"/>
	</g>
</g></g><path d="M 289.1125793457031 260.7288818359375 L 252.39749145507812 301.6139831542969 L 207.204833984375 301.3539733886719 L 176.8070068359375 260.6603088378906" style="fill-opacity: 1; stroke: rgb(0, 0, 0); stroke-opacity: 1; stroke-width: 0; paint-order: fill; fill: rgb(137, 106, 49);" transform="matrix(0.0697370246052742, 0, 0, 0.0697370246052742, -11.897698084513365, -17.926217397054046)"/><g transform="matrix(0.0809711143374443, 0, 0, 0.04239802062511445, 8.087516148885086, 23.50494066874186)"><g id="g-19" transform="matrix(1, 0, 0, 1, 0, 0)">
	<g id="g-20">
		<path class="st0" d="M58,49h100v100H58V49z" style="fill: rgb(137, 106, 49); fill-opacity: 1;"/>
	</g>
</g></g><g transform="matrix(-0.1073509380221367, 0.280432015657425, 0.03965799883008003, 0.015181080438196663, 31.94194920857747, -16.75145276387532)"><g id="g-21" transform="matrix(1, 0, 0, 1, 0, 0)">
	<g id="g-22">
		<path class="st0" d="M 122.32324600219727 48.76312255859375 L 158 49 L 158 149 L 138.13991165161133 148.93218994140625 L 122.32324600219727 48.76312255859375 Z" style="fill: rgb(137, 106, 49); fill-opacity: 1;"/>
	</g>
</g></g><g transform="matrix(0.05909024178981781, -0.022595535963773727, 0.1043069288134575, 0.2727640867233277, 8.132438977559389, -9.554642995198556)"><g id="g-17" transform="matrix(1, 0, 0, 1, 0, 0)">
	<g id="g-18">
		<path class="st0" d="M58,49h100v100H58V49z" style="fill: rgb(242, 184, 75);" transform="matrix(1, -1.3877787807814457e-17, 0, 1, -0.09374708950397803, 0.05336056069793926)"/>
	</g>
</g></g><g transform="matrix(0.08119314908981323, 0, 0, 0.04239802062511445, 22.40401585896808, 23.496920267740883)"><g id="g-23" transform="matrix(1, 0, 0, 1, 0, 0)">
	<g id="g-24">
		<path class="st0" d="M58,49h100v100H58V49z" style="fill: rgb(242, 184, 75);"/>
	</g>
</g></g><g transform="matrix(-0.1073509380221367, 0.280432015657425, 0.03965799883008003, 0.015181080438196663, 46.2713139851888, -16.759503682454422)"><g id="g-25" transform="matrix(1, 0, 0, 1, 0, 0)">
	<g id="g-26">
		<path class="st0" d="M 58 49 L 158 49 L 158 149 L 52.60102081298828 149.51805114746094 L 58 49 Z" style="fill: rgb(242, 184, 75);"/>
	</g>
</g></g><g transform="matrix(0.05909024178981781, -0.02259553596377373, 0.10381198674440384, 0.27146965265274053, 22.50328954060872, -9.354710896809902)"><g id="g-27" transform="matrix(1, 0, 0, 1, 0, 0)">
	<g id="g-28">
		<path class="st0" d="M 57.9688720703125 128.73087692260742 L 158.35630416870117 104.35888290405273 L 158 149 L 58 149 L 57.9688720703125 128.73087692260742 Z" style="fill: rgb(137, 106, 49); fill-opacity: 1;"/>
	</g>
</g></g><g transform="matrix(0.08107377588748932, 0, 0, 0.04239802062511445, 36.72621281941731, 23.469128290812172)"><g id="g-29" transform="matrix(1, 0, 0, 1, 0, 0)">
	<g id="g-30">
		<path class="st0" d="M58,49h100v100H58V49z" style="fill: rgb(137, 106, 49); fill-opacity: 1;" transform="matrix(1, 0, 0, 1, -0.22429635243469193, 0.42890051580354793)"/>
	</g>
</g></g><path d="M 289.1125793457031 260.7289123535156 L 252.39747619628906 301.6139831542969 L 207.204833984375 301.3539733886719 L 176.8070068359375 260.6603088378906" style="fill-opacity: 1; stroke: rgb(0, 0, 0); stroke-opacity: 1; stroke-width: 0; paint-order: fill; fill: rgb(242, 184, 75);" transform="matrix(0.0697370246052742, 0, 0, 0.0697370246052742, 2.4291988213856825, -17.9288018544515)"/></svg>