<?xml version="1.0" encoding="utf-8"?>
<svg id="master-artboard" viewBox="0 0 1000 300" version="1.1" xmlns="http://www.w3.org/2000/svg" x="0px" y="0px" style="enable-background:new 0 0 336 235.2;" width="1000px" height="300px"><rect id="ee-background" x="0" y="0" width="1000" height="300" style="fill: white; fill-opacity: 0; pointer-events: none;"/><defs><clipPath id="clipPath38" clipPathUnits="userSpaceOnUse"><path id="path36" d="M 0,595.28 H 841.89 V 0 H 0 Z"/></clipPath></defs><g transform="matrix(1.2347130787313838, 0, 0, 1.2347130787313838, 7.004913214131989, 0.000004053115389979212)"><metadata id="metadata8"/><g transform="matrix(1.3333333,0,0,-1.3333333,0,793.70667)" id="g10"><path id="path12" style="fill:#4ba8f9;fill-opacity:1;fill-rule:nonzero;stroke:none" d="m 220.826,390.506 h -21.92 v 80.776 h 21.92 z" transform="matrix(1.1178938150405884, 0, 0, 1.1178938150405884, -198.46746162696195, 21.173112969121348)"/><g transform="matrix(1.1178938150405884, 0, 0, 1.1178938150405884, 127.23370261864346, 547.6404524848074)" id="g14"><path id="path16" style="fill:#4ba8f9;fill-opacity:1;fill-rule:nonzero;stroke:none" d="M 0,0 0.378,-44.443 -41.479,1.482 -55.646,-3.364 v -77.402 h 20.565 l -0.364,44.203 41.969,-45.558 14.035,4.894 V 0 Z"/></g><g transform="matrix(1.1178938150405884, 0, 0, 1.1178938150405884, 207.700247723624, 493.0776778266042)" id="g18"><path id="path20" style="fill:#4ba8f9;fill-opacity:1;fill-rule:nonzero;stroke:none" d="M 0,0 -20.304,50.363 -42.142,45.555 -9.349,-32.009 H 7.646 L 40.554,45.555 20.59,50.363 Z"/></g><g transform="matrix(1.1178936958312988, 0, 0, 1.1178936958312988, 286.0947637148349, 476.3518477484793)" id="g22"><path id="path24" style="fill:#4ba8f9;fill-opacity:1;fill-rule:nonzero;stroke:none" d="M 0,0 V 16.867 H 26.967 V 32.635 H 0 v 14.521 h 30.045 v 16.615 h -51.333 v -80.766 h 52.98 L 35.332,0 Z"/></g><g transform="matrix(1.1178936958312988, 0, 0, 1.1178936958312988, 395.6843328066318, 547.6404524848074)" id="g26"><path id="path28" style="fill:#4ba8f9;fill-opacity:1;fill-rule:nonzero;stroke:none" d="M 0,0 0.379,-44.443 -41.492,1.482 -55.649,-3.364 v -77.402 h 20.569 l -0.379,44.203 41.98,-45.558 14.035,4.894 V 0 Z"/></g><path id="path30" style="fill:#4ba8f9;fill-opacity:1;fill-rule:nonzero;stroke:none" d="m 196.137,474.196 h -22.02 v 22.003 h 22.02 z" transform="matrix(1.1178938150405884, 0, 0, 1.1178938150405884, -198.46746162696195, 21.173112969121348)"/><g id="g32" transform="matrix(1.1178938150405884, 0, 0, 1.1178938150405884, -198.46746162696195, 21.173112969121348)"><g clip-path="url(#clipPath38)" id="g34"><g transform="translate(599.9473,401.9468)" id="g40"><path id="path42" style="fill:#efefef;fill-opacity:1;fill-rule:nonzero;stroke:none" d="m 0,0 c -1.42,-0.543 -3.295,-1.104 -5.654,-1.654 -2.336,-0.544 -4.671,-0.812 -7.003,-0.812 -5.394,0 -9.628,1.468 -12.672,4.389 -3.054,2.933 -4.578,6.985 -4.578,12.155 0,4.933 1.534,8.905 4.612,11.933 3.079,3.009 7.382,4.519 12.899,4.519 2.084,0 4.076,-0.189 5.954,-0.564 1.899,-0.378 4.004,-1.128 6.315,-2.239 v -7.44 h -0.915 c -0.398,0.296 -0.983,0.723 -1.751,1.266 -0.767,0.543 -1.499,1.011 -2.222,1.389 -0.822,0.457 -1.771,0.846 -2.881,1.183 -1.102,0.324 -2.268,0.482 -3.502,0.482 -1.456,0 -2.759,-0.213 -3.939,-0.64 -1.18,-0.419 -2.242,-1.08 -3.171,-1.953 -0.905,-0.864 -1.613,-1.941 -2.13,-3.261 -0.511,-1.304 -0.777,-2.814 -0.777,-4.544 0,-3.502 0.929,-6.191 2.793,-8.052 1.854,-1.857 4.613,-2.8 8.242,-2.8 0.319,0 0.663,0.024 1.028,0.031 0.389,0.024 0.733,0.045 1.042,0.069 v 6.226 h -6.318 v 5.981 l 14.628,0 z"/></g><path id="path44" style="fill:#efefef;fill-opacity:1;fill-rule:nonzero;stroke:none" d="m 613.775,400.137 h -7.695 v 33.151 h 7.695 z"/><g transform="translate(635.2451,406.2808)" id="g46"><path id="path48" style="fill:#efefef;fill-opacity:1;fill-rule:nonzero;stroke:none" d="m 0,0 c 0.506,0.605 0.87,1.331 1.121,2.194 0.241,0.861 0.368,2.043 0.368,3.571 0,1.403 -0.127,2.576 -0.368,3.536 -0.262,0.963 -0.615,1.713 -1.076,2.283 -0.458,0.575 -0.994,0.988 -1.634,1.238 -0.654,0.235 -1.342,0.362 -2.074,0.362 -0.733,0 -1.397,-0.1 -1.968,-0.299 -0.585,-0.206 -1.135,-0.599 -1.661,-1.2 C -7.75,11.134 -8.128,10.381 -8.399,9.4 -8.675,8.444 -8.822,7.23 -8.822,5.765 c 0,-1.307 0.113,-2.435 0.364,-3.406 0.24,-0.956 0.595,-1.713 1.066,-2.297 0.457,-0.557 1.004,-0.963 1.623,-1.218 0.64,-0.265 1.363,-0.399 2.174,-0.399 0.689,0 1.352,0.127 1.982,0.368 C -0.974,-0.953 -0.447,-0.558 0,0 M 9.441,5.806 C 9.441,1.875 8.286,-1.221 5.999,-3.48 3.708,-5.758 0.481,-6.9 -3.663,-6.9 c -4.155,0 -7.371,1.142 -9.658,3.42 -2.291,2.259 -3.448,5.355 -3.448,9.286 0,3.963 1.157,7.079 3.457,9.335 2.312,2.256 5.528,3.388 9.649,3.388 4.179,0 7.405,-1.138 9.672,-3.412 C 8.31,12.844 9.441,9.744 9.441,5.806"/></g><g transform="translate(666.4805,412.2729)" id="g50"><path id="path52" style="fill:#efefef;fill-opacity:1;fill-rule:nonzero;stroke:none" d="m 0,0 c 0,2.118 -0.365,3.763 -1.087,4.911 -0.723,1.156 -2.002,1.727 -3.87,1.727 -0.732,0 -1.465,-0.11 -2.232,-0.333 C -7.956,6.088 -8.675,5.765 -9.373,5.358 V -6.646 c 0.547,-0.186 1.076,-0.327 1.568,-0.395 0.502,-0.079 1.097,-0.107 1.795,-0.107 2.016,0 3.527,0.585 4.521,1.789 C -0.492,-4.169 0,-2.384 0,0 m 7.897,0.158 c 0,-3.76 -1.043,-6.832 -3.113,-9.208 -2.07,-2.37 -4.671,-3.546 -7.77,-3.546 -1.341,0 -2.507,0.123 -3.515,0.419 -1.008,0.282 -1.957,0.689 -2.872,1.239 l -0.32,-1.198 h -7.385 v 33.152 h 7.705 V 9.293 c 1.166,0.943 2.38,1.703 3.604,2.288 1.225,0.577 2.646,0.877 4.235,0.877 3.033,0 5.355,-1.087 6.992,-3.281 C 7.096,6.996 7.897,3.989 7.897,0.158"/></g><g transform="translate(693.6533,406.3911)" id="g54"><path id="path56" style="fill:#efefef;fill-opacity:1;fill-rule:nonzero;stroke:none" d="M 0,0 V 4.974 C -1.053,4.884 -2.164,4.767 -3.389,4.626 -4.592,4.478 -5.507,4.299 -6.126,4.1 -6.894,3.866 -7.475,3.508 -7.888,3.047 -8.29,2.593 -8.492,1.987 -8.492,1.238 c 0,-0.492 0.044,-0.898 0.123,-1.211 0.093,-0.316 0.3,-0.605 0.643,-0.901 0.33,-0.282 0.719,-0.488 1.166,-0.619 0.468,-0.131 1.166,-0.199 2.14,-0.199 0.767,0 1.544,0.154 2.335,0.463 C -1.294,-0.915 -0.609,-0.509 0,0 m 0,-3.719 c -0.427,-0.305 -0.939,-0.684 -1.548,-1.124 -0.605,-0.441 -1.19,-0.792 -1.726,-1.053 -0.757,-0.34 -1.535,-0.591 -2.346,-0.75 -0.802,-0.168 -1.696,-0.248 -2.656,-0.248 -2.267,0 -4.179,0.703 -5.713,2.106 -1.534,1.41 -2.312,3.205 -2.312,5.392 0,1.749 0.403,3.179 1.18,4.28 0.777,1.114 1.899,1.992 3.33,2.631 1.42,0.636 3.182,1.084 5.29,1.352 2.091,0.282 4.279,0.475 6.535,0.606 v 0.13 c 0,1.314 -0.54,2.222 -1.627,2.738 -1.076,0.492 -2.666,0.757 -4.761,0.757 -1.268,0 -2.621,-0.231 -4.051,-0.681 -1.442,-0.447 -2.473,-0.791 -3.092,-1.025 h -0.698 v 5.771 c 0.8,0.207 2.118,0.461 3.938,0.75 1.833,0.289 3.663,0.454 5.493,0.454 4.371,0 7.509,-0.674 9.445,-2.022 1.943,-1.342 2.907,-3.453 2.907,-6.323 V -6.254 H 0 Z"/></g><path id="path58" style="fill:#efefef;fill-opacity:1;fill-rule:nonzero;stroke:none" d="m 716.199,400.137 h -7.69 v 33.151 h 7.69 z"/><g transform="translate(638.5918,435.8267)" id="g60"><path id="path62" style="fill:#4ba8f9;fill-opacity:1;fill-rule:nonzero;stroke:none" d="m 0,0 c -2.232,39.824 -35.197,71.015 -75.053,71.015 -24.059,0 -46.871,-11.709 -61.021,-31.325 l -0.42,-0.588 4.286,-4.613 0.622,0.891 c 12.984,18.457 34.117,29.477 56.533,29.477 36.584,0 66.853,-28.637 68.909,-65.201 l 0.052,-0.88 6.14,0.347 z"/></g><g transform="translate(620.458,392.4702)" id="g64"><path id="path66" style="fill:#4ba8f9;fill-opacity:1;fill-rule:nonzero;stroke:none" d="m 0,0 c -12.943,-18.79 -34.224,-30.007 -56.919,-30.007 -20.575,0 -39.958,9.118 -53.169,25.02 l -0.56,0.674 -4.775,-3.935 0.565,-0.678 c 14.367,-17.307 35.486,-27.234 57.939,-27.234 24.762,0 47.945,12.207 62.017,32.659 l 0.499,0.726 -5.098,3.502 z"/></g></g></g></g></g></svg>