<?xml version="1.0" encoding="utf-8"?>
<svg id="master-artboard" viewBox="0 0 64 64" version="1.1" xmlns="http://www.w3.org/2000/svg" x="0px" y="0px" style="enable-background:new 0 0 1400 980;" width="64px" height="64px"><rect id="ee-background" x="0" y="0" width="64" height="64" style="fill: white; fill-opacity: 0; pointer-events: none;"/><path d="M 44.52702331542969 69.09798431396484" style="fill: rgb(51, 51, 51); fill-opacity: 1; stroke: rgb(0, 0, 0); stroke-opacity: 1; stroke-width: 0; paint-order: fill;" transform="matrix(0.4931046315355303, 0, 0, 0.4931046315355303, 14.223840505502139, 12.766665636090337)"/><path d="M 164.49258422851562 332.6352844238281 L 164.49258422851562 332.6352844238281" style="fill: rgb(234, 255, 0); fill-opacity: 1; stroke: rgb(0, 0, 0); stroke-opacity: 1; stroke-width: 0; paint-order: fill;" transform="matrix(-0.07044354442893752, 0, 0, 0.0544762675491306, 43.068479205287744, 1.075053638392319)"/><path d="M 52.492618560791016 358.2818298339844 L 52.492618560791016 358.2818298339844" style="fill: rgb(234, 255, 0); fill-opacity: 1; stroke: rgb(0, 0, 0); stroke-opacity: 1; stroke-width: 0; paint-order: fill;" transform="matrix(-0.07044354442893752, 0, 0, 0.0544762675491306, 43.068479205287744, 1.075053638392319)"/><path d="M 52.492618560791016 358.2818298339844 L 52.492618560791016 358.2818298339844" style="fill: rgb(69, 255, 125); fill-opacity: 1; stroke: rgb(0, 0, 0); stroke-opacity: 1; stroke-width: 0; paint-order: fill;" transform="matrix(0.07044354442893752, 0, 0, 0.054476325611994, 28.564218839993814, 1.1333843932933405)"/><path d="M 164.49258422851562 332.6352844238281 L 164.49258422851562 332.6352844238281" style="fill: rgb(69, 255, 125); fill-opacity: 1; stroke: rgb(0, 0, 0); stroke-opacity: 1; stroke-width: 0; paint-order: fill;" transform="matrix(0.07044354442893752, 0, 0, 0.054476325611994, 28.564218839993814, 1.1333843932933405)"/><path d="M 446.3457336425781 183.763671875" style="fill: rgb(0, 255, 25); fill-opacity: 1; stroke: rgb(0, 0, 0); stroke-opacity: 1; stroke-width: 0; paint-order: fill;" transform="matrix(0.04427878186106682, 0, 0, 0.04427878186106682, 4.824754238128648, 12.7666654586792)"/><g transform="matrix(1.44931161403656, 0, 0, 1.44931161403656, 7.714178562164292, 10.511037826538072)"><g transform="matrix(1, 0, 0, 1, 0, 0)"><g transform="matrix(1, 0, 0, 1, 0, 0)"><g transform="matrix(1, 0, 0, 1, 0, 0)"><g transform="matrix(1, 0, 0, 1, 0, 0)"><g transform="matrix(1, 0, 0, 1, 0, 0)"><g transform="matrix(1, 0, 0, 1, 0, 0)"><g transform="matrix(1, 0, 0, 1, 0, 0)"><path class="st0" d="M 103 336.5 L 53 424 C 92.3717746972924 404.53217188328085 135.3962569743538 414.21776671276245 153 424 L 103 336.5" style="fill: rgb(118, 118, 118);" transform="matrix(-0.07044381648302078, 0, 0, 0.05447636917233467, 24.21315193176268, -18.143362045288086)"/><path d="M 342.9925231933594 399.01458740234375 L 198.32589721679688 453.3249206542969 C 208.05007084096687 470.48556783763604 257.0663026783504 504.5081538518746 257.82586669921875 620.7817993164062 L 256.6592102050781 620.7817993164062 C 320.19945211160666 564.7709107096538 350.90979888123127 447.89632749026424 342.9925231933594 399.01458740234375 L 342.9925231933594 399.01458740234375 Z" style="fill: rgb(118, 118, 118); fill-opacity: 1; stroke: rgb(0, 0, 0); stroke-opacity: 1; stroke-width: 0; paint-order: stroke;" transform="matrix(-0.07044381648302078, 0, 0, 0.05447636917233467, 24.21315193176268, -18.143362045288086)"/><path class="st0" d="M 125.8545150756836 340.721923828125 L 53 424 C 92.3717746972924 404.53217188328085 125.60147242845537 412.10680479869995 143.20521545410156 421.8890380859375" style="fill: rgb(118, 118, 118);" transform="matrix(0.07044383138418198, 0, 0, -0.054476380348205566, 9.686352403054062, 48.649658203125)"/><path d="M 178.49256896972656 785.2213745117188 L 178.49256896972656 785.2213745117188 C 261.82387310076587 770.4967135135362 297.05309532874116 709.6841028030423 309.1592102050781 661.5145263671875 L 309.1592102050781 661.5145263671875 L 255.49253845214844 644.919677734375 C 245.1051155549492 727.1230172580056 200.52970101336857 772.8692756433908 178.49256896972656 785.2213745117188 Z" style="fill: rgb(118, 118, 118); fill-opacity: 1; stroke: rgb(0, 0, 0); stroke-opacity: 1; stroke-width: 0; paint-order: fill;" transform="matrix(-0.07044381648302078, 0, 0, 0.05447636917233467, 24.21315193176268, -18.143362045288086)"/><path d="M 178.49256896972656 785.2213745117188 L 178.49256896972656 785.2213745117188 C 261.82387310076587 770.4967135135362 297.05309532874116 709.6841028030423 309.1592102050781 661.5145263671875 L 309.1592102050781 661.5145263671875 L 255.49253845214844 644.919677734375 C 245.1051155549492 727.1230172580056 200.52970101336857 772.8692756433908 178.49256896972656 785.2213745117188 Z" style="fill: rgb(118, 118, 118); fill-opacity: 1; stroke: rgb(0, 0, 0); stroke-opacity: 1; stroke-width: 0; paint-order: fill;" transform="matrix(0.07044381648302078, 0, 0, 0.05447641760110855, 9.708886146545396, -18.08503532409668)"/><path d="M 342.9925231933594 399.01458740234375 L 198.32589721679688 453.3249206542969 C 208.05007084096687 470.48556783763604 257.0663026783504 504.5081538518746 257.82586669921875 620.7817993164062 L 256.6592102050781 620.7817993164062 C 320.19945211160666 564.7709107096538 350.90979888123127 447.89632749026424 342.9925231933594 399.01458740234375 L 342.9925231933594 399.01458740234375 Z" style="fill: rgb(118, 118, 118); fill-opacity: 1; stroke: rgb(0, 0, 0); stroke-opacity: 1; stroke-width: 0; paint-order: stroke;" transform="matrix(0.07044381648302078, 0, 0, 0.05447641760110855, 9.708886146545396, -18.08503532409668)"/><path class="st0" d="M652,46c27.6,0,50,22.4,50,50s-22.4,50-50,50s-50-22.4-50-50S624.4,46,652,46z" style="fill: rgb(118, 118, 118);" transform="matrix(0.1331382393836975, 0, 0, 0.1331382393836975, -69.84156799316406, 2.4635791778564453)"/><path d="M 23.974706649780273 52.60573959350586" style="fill: rgb(118, 118, 118); fill-opacity: 1; stroke: rgb(0, 0, 0); stroke-opacity: 1; stroke-width: 0; paint-order: fill;"/></g></g></g></g></g></g></g></g></svg>