<?xml version="1.0" encoding="utf-8"?>
<svg id="master-artboard" viewBox="0 0 64 64" version="1.1" xmlns="http://www.w3.org/2000/svg" x="0px" y="0px" style="enable-background:new 0 0 1400 980;" width="64px" height="64px"><rect id="ee-background" x="0" y="0" width="64" height="64" style="fill: white; fill-opacity: 0; pointer-events: none;"/><g transform="matrix(0.9999999403953552, 0, 0, 0.9999999403953552, 0.0000019073486328125, 0)"><rect id="rect-1" x="0" y="0" width="64" height="64" style="fill: white; fill-opacity: 0; pointer-events: none;"/><g transform="matrix(-0.23069952428340915, 0, 0, 0.23069952428340915, 182.41981506347662, 9.77767403920491)"><g id="g-1" transform="matrix(1, 0, 0, 1, 0, 0)">
	<g id="g-2">
		<path class="st0" d="M652,46c27.6,0,50,22.4,50,50s-22.4,50-50,50s-50-22.4-50-50S624.4,46,652,46z" style="fill: rgb(241, 196, 15);"/>
	</g>
</g></g><path d="M 3.926029920578003 34.567909240722656" style="fill-opacity: 1; stroke: rgb(0, 0, 0); stroke-opacity: 1; stroke-width: 10; paint-order: fill;"/><path style="fill: rgb(5, 51, 10); fill-opacity: 1; stroke: rgb(0, 0, 0); stroke-opacity: 1; stroke-width: 0; paint-order: stroke;"/><path d="M 80.63579559326172 15.706329345703125 L 80.63579559326172 15.706329345703125 C 78.58036742212612 31.03799213892391 69.78612963674568 42.45469703228291 65.30245208740234 44.37299728393555 C 64.22690703941196 35.314583363284775 62.364320188861505 31.171054027912852 56.4691276550293 26.539663314819336 C 56.67410479429898 26.949624602838988 80.87471360203304 16.184173592175103 80.63579559326172 15.706329345703125 Z" style="fill: rgb(241, 196, 15); fill-opacity: 1; stroke: rgb(0, 0, 0); stroke-opacity: 1; stroke-width: 0; paint-order: fill;" transform="matrix(-0.8760721683502197, 0, 0, 0.8760721683502197, 71.42708587646484, -6.038320223490416)"/><path d="M 70.13579559326172 34.37299728393555" style="fill: rgb(0, 34, 255); fill-opacity: 1; stroke: rgb(0, 0, 0); stroke-opacity: 1; stroke-width: 0; paint-order: stroke;" transform="matrix(-1, 0, 0, 1, 88.10491943359372, 0)"/><path d="M 42.9691276550293 12.37299633026123 L 36.802459716796875 23.706329345703125 C 42.08415863070262 21.783448535677234 46.8612270776461 22.504631502424257 49.4691276550293 23.206329345703125 L 42.9691276550293 12.37299633026123 Z" style="fill: rgb(241, 196, 15); fill-opacity: 1; stroke: rgb(0, 0, 0); stroke-opacity: 1; stroke-width: 0; paint-order: stroke;" transform="matrix(0.8757029771804811, 0.02542425319552422, -0.02542425319552422, 0.8757029771804811, -5.284619331359863, -6.6902758280436245)"/><path d="M 63.63579177856445 52.206329345703125 C 62.5814501211955 54.274836478006684 60.78730620811763 58.88261669287598 52.802459716796875 63.37299728393555 L 56.63579177856445 71.37299346923828 C 58.00123409552888 62.19489033620808 66.94010119600877 56.16394948251252 74.46912384033203 52.37299728393555 L 63.63579177856445 52.206329345703125 Z" style="fill: rgb(241, 196, 15); fill-opacity: 1; stroke: rgb(0, 0, 0); stroke-opacity: 1; stroke-width: 0; paint-order: stroke;" transform="matrix(-0.8760721683502197, 0, 0, 0.8760721683502197, 71.13506317138672, -7.352421919504806)"/><path d="M 80.63579559326172 15.706329345703125 L 80.63579559326172 15.706329345703125 C 78.58036742212612 31.03799213892391 69.78612963674568 42.45469703228291 65.30245208740234 44.37299728393555 C 64.22690703941196 35.314583363284775 62.364320188861505 31.171054027912852 56.4691276550293 26.539663314819336 C 56.67410479429898 26.949624602838988 80.87471360203304 16.184173592175103 80.63579559326172 15.706329345703125 Z" style="fill: rgb(241, 196, 15); fill-opacity: 1; stroke: rgb(0, 0, 0); stroke-opacity: 1; stroke-width: 0; paint-order: fill;" transform="matrix(0.876072645187378, 0, 0, 0.876072645187378, -7.267357826232882, -6.021031061808259)"/><path d="M 63.63579177856445 52.206329345703125 C 62.5814501211955 54.274836478006684 60.78730620811763 58.88261669287598 52.802459716796875 63.37299728393555 L 56.63579177856445 71.37299346923828 C 58.00123409552888 62.19489033620808 66.94010119600877 56.16394948251252 74.46912384033203 52.37299728393555 L 63.63579177856445 52.206329345703125 Z" style="fill: rgb(241, 196, 15); fill-opacity: 1; stroke: rgb(0, 0, 0); stroke-opacity: 1; stroke-width: 0; paint-order: stroke;" transform="matrix(0.876072645187378, 0, 0, 0.876072645187378, -6.9753370285033895, -7.33513895670572)"/><g transform="matrix(-0.09897186607122421, 0, 0, -0.10022743791341783, 42.006370544433594, 91.68676503499348)"><g id="g-9" transform="matrix(1, 0, 0, 1, 0, 0)">
	<g id="g-10">
		<path class="st0" d="M 103 336.5 L 54.351348876953125 426.6688537597656 C 64.69838894590208 410.91361412515005 159.18728493272704 415.38594437754506 151.64865112304688 428.00323486328125 L 103 336.5" style="fill: rgb(241, 196, 15);"/>
	</g>
</g></g></g></svg>