<?xml version="1.0" encoding="utf-8"?>
<svg id="master-artboard" viewBox="0 0 64 64" xmlns="http://www.w3.org/2000/svg" width="64px" height="64px" version="1.1" style="shape-rendering:geometricPrecision; text-rendering:geometricPrecision; image-rendering:optimizeQuality; fill-rule:evenodd; clip-rule:evenodd"><rect id="ee-background" x="0" y="0" width="64" height="64" style="fill: white; fill-opacity: 0; pointer-events: none;"/><g transform="matrix(10, 0, 0, 10, 0.000017437343558412977, 7.105427357601002e-15)"><rect id="rect-3" x="0" y="0" width="64" height="64" style="fill: white; fill-opacity: 0; pointer-events: none;" transform="matrix(0.140205431684938, 0, 0, 0.140205431684938, 1.9009273918647394, 2.101025520235395)"/><path d="M 44.52702331542969 69.09798431396484" style="fill: rgb(51, 51, 51); fill-opacity: 1; stroke: rgb(0, 0, 0); stroke-opacity: 1; stroke-width: 0; paint-order: fill;" transform="matrix(0.4931046315355303, 0, 0, 0.4931046315355303, 14.223840505502139, 12.766665636090337)"/><path d="M 164.49258422851562 332.6352844238281 L 164.49258422851562 332.6352844238281" style="fill: rgb(234, 255, 0); fill-opacity: 1; stroke: rgb(0, 0, 0); stroke-opacity: 1; stroke-width: 0; paint-order: fill;" transform="matrix(-0.07044354442893752, 0, 0, 0.0544762675491306, 43.068479205287744, 1.075053638392319)"/><path d="M 52.492618560791016 358.2818298339844 L 52.492618560791016 358.2818298339844" style="fill: rgb(234, 255, 0); fill-opacity: 1; stroke: rgb(0, 0, 0); stroke-opacity: 1; stroke-width: 0; paint-order: fill;" transform="matrix(-0.07044354442893752, 0, 0, 0.0544762675491306, 43.068479205287744, 1.075053638392319)"/><path d="M 52.492618560791016 358.2818298339844 L 52.492618560791016 358.2818298339844" style="fill: rgb(69, 255, 125); fill-opacity: 1; stroke: rgb(0, 0, 0); stroke-opacity: 1; stroke-width: 0; paint-order: fill;" transform="matrix(0.07044354442893752, 0, 0, 0.054476325611994, 28.564218839993814, 1.1333843932933405)"/><path d="M 164.49258422851562 332.6352844238281 L 164.49258422851562 332.6352844238281" style="fill: rgb(69, 255, 125); fill-opacity: 1; stroke: rgb(0, 0, 0); stroke-opacity: 1; stroke-width: 0; paint-order: fill;" transform="matrix(0.07044354442893752, 0, 0, 0.054476325611994, 28.564218839993814, 1.1333843932933405)"/><path d="M 446.3457336425781 183.763671875" style="fill: rgb(0, 255, 25); fill-opacity: 1; stroke: rgb(0, 0, 0); stroke-opacity: 1; stroke-width: 0; paint-order: fill;" transform="matrix(0.04427878186106682, 0, 0, 0.04427878186106682, 4.824754238128648, 12.7666654586792)"/><path d="M 0 0 H 64 V 64 H 0 V 0 Z" id="rect-2" style="fill: white; fill-opacity: 0; pointer-events: none;" transform="matrix(0.14020560460851783, 0, 0, 0.14020560460851783, 1.9009212068506258, 2.101020764488794)"/><path d="M 0 0 H 64 V 64 H 0 V 0 Z" id="rect-1" style="fill: white; fill-opacity: 0; pointer-events: none;" transform="matrix(0.14020536474620504, 0, 0, 0.14020536474620504, 1.900931698619513, 2.101026990787159)"/><path d="M 3.926029920578003 34.567909240722656" style="fill-opacity: 1; stroke: rgb(0, 0, 0); stroke-opacity: 1; stroke-width: 10; paint-order: fill;" transform="matrix(0.9999998211860657, 0, 0, 0.9999998211860657, 0.000003814697720372351, 0)"/><path style="fill: rgb(5, 51, 10); fill-opacity: 1; stroke: rgb(0, 0, 0); stroke-opacity: 1; stroke-width: 0; paint-order: stroke;" transform="matrix(0.9999998211860657, 0, 0, 0.9999998211860657, 0.000003814697720372351, 0)"/><path d="M 70.13579559326172 34.37299728393555" style="fill: rgb(0, 34, 255); fill-opacity: 1; stroke: rgb(0, 0, 0); stroke-opacity: 1; stroke-width: 0; paint-order: stroke;" transform="matrix(-0.9999998211860657, 0, 0, 0.9999998211860657, 88.10490749390418, 0)"/><g transform="matrix(0.12571413815021515, 0, 0, -0.13714265823364258, 30.7947942078327, 68.38605936626978)"><g id="g-7" transform="matrix(1, 0, 0, 1, 0, 0)">
	<g id="g-8" transform="matrix(1, 0, 0, 1, 0, 1.4583352852185953)">
		
	</g>
</g></g><g transform="matrix(0.10321473330259323, 0, 0, 0.10321473330259323, -0.09632525593042374, 0.05168955773115158)"><path class="st0" d="M652,46c27.6,0,50,22.4,50,50s-22.4,50-50,50s-50-22.4-50-50S624.4,46,652,46z" style="fill: rgb(63, 191, 220);" transform="matrix(-0.2080928730887581, 0, 0, 0.2080928730887581, 167.68026739810017, 11.947907467628394)"/><g transform="matrix(1, 0, 0, 1, 7.105427357601002e-15, 0)"><g transform="matrix(0.18622642755508423, 0, 0, 0.12231442332267761, 12.816622734069831, -32.96214294433594)"><g id="g-3" transform="matrix(1, 0, 0, 1, 0, 0)">
	<g id="g-4">
		<path class="st0" d="M 103 336.5 L 53 428.26373291015625 C 85.70786818079883 396.02199496215053 138.62226335705284 414.19510430732356 153 428.26373291015625 L 103 336.5" style="fill: rgb(230, 126, 34);"/>
	<path d="M 107.60879516601562 409.3031005859375" style="fill: rgb(230, 126, 34); fill-opacity: 1; stroke: rgb(0, 0, 0); stroke-opacity: 1; stroke-width: 0; paint-order: fill;"/></g>
</g></g><path d="M 62.79433059692383 8.919815063476562 L 60.62766647338867 30.25314712524414 L 46.089481353759766 36.718868255615234 C 47.54575606139876 32.08525103196031 47.95022716914833 24.873600727909555 41.235633850097656 19.67243766784668 L 62.79433059692383 8.919815063476562 Z" style="fill: rgb(230, 126, 34); fill-opacity: 1; stroke: rgb(0, 0, 0); stroke-opacity: 1; stroke-width: 0; paint-order: fill;" transform="matrix(-1, 0, 0, 1, 63.92758004337484, -0.0045141264796200176)"/><path d="M 47.12766647338867 52.25314712524414 C 48.46475956812598 46.09639346391609 55.484700675240354 40.84613717786064 58.46099853515625 38.41981506347656 L 46.574642181396484 36.264366149902344 C 44.81173427331769 41.0988856493501 39.62550543293619 45.035960029324244 37.83323669433594 46.104434967041016 C 37.95362861011642 46.264961084854555 47.40266832318299 53.230936517907914 47.12766647338867 52.25314712524414 Z" style="fill: rgb(230, 126, 34); fill-opacity: 1; stroke: rgb(0, 0, 0); stroke-opacity: 1; stroke-width: 0; paint-order: stroke;" transform="matrix(-1, 0, 0, 1, 63.92758004337484, -0.0045141264796200176)"/></g></g><g transform="matrix(0.10321473330259323, 0, 0, 0.10321473330259323, -0.09632525593042374, 0.05168955773115158)"><path d="M 62.79433059692383 8.919815063476562 L 60.62766647338867 30.25314712524414 L 46.089481353759766 36.718868255615234 C 47.54575606139876 32.08525103196031 47.95022716914833 24.873600727909555 41.235633850097656 19.67243766784668 L 62.79433059692383 8.919815063476562 Z" style="fill: rgb(230, 126, 34); fill-opacity: 1; stroke: rgb(0, 0, 0); stroke-opacity: 1; stroke-width: 0; paint-order: fill;" transform="matrix(1, 0, 0, 1, 7.105427357601002e-15, 0)"/><path d="M 47.12766647338867 52.25314712524414 C 48.46475956812598 46.09639346391609 55.484700675240354 40.84613717786064 58.46099853515625 38.41981506347656 L 46.574642181396484 36.264366149902344 C 44.81173427331769 41.0988856493501 39.62550543293619 45.035960029324244 37.83323669433594 46.104434967041016 C 37.95362861011642 46.264961084854555 47.40266832318299 53.230936517907914 47.12766647338867 52.25314712524414 Z" style="fill: rgb(230, 126, 34); fill-opacity: 1; stroke: rgb(0, 0, 0); stroke-opacity: 1; stroke-width: 0; paint-order: stroke;" transform="matrix(1, 0, 0, 1, 7.105427357601002e-15, 0)"/><g transform="matrix(0.13775631189346313, 0, 0, -0.11554813385009766, -37.15549185603922, 94.98460693359375)"><g id="g-5" transform="matrix(0.9999999999999999, 0, 0, 0.900982916355133, 0, 46.18794615033187)">
	<path class="st0" d="M 509.4 349.5 C 505.29999999999995 342.3 498.59999999999997 342.3 494.5 349.5 L 459.4 411 C 455.29999999999995 418.2 458.7 424 467 424 C 467 408.6999594633278 537 414.3622944604026 537 424 C 545.2 424 548.7 418.1 544.6 411 L 509.4 349.5 Z" style="fill: rgb(230, 126, 34);"/>
<path d="M 355.6521301269531 636.7227783203125" style="fill: rgb(230, 126, 34); fill-opacity: 1; stroke: rgb(0, 0, 0); stroke-opacity: 1; stroke-width: 0; paint-order: fill;"/></g></g></g><g id="g-1" transform="matrix(0.031159199774265296, 0, 0, 0.031159199774265296, -17.171552658081055, -22.538720279077722)">
	<g id="g-2">
		<g>
			<path class="st0" d="M654,884c-29.2,0-53-23.8-53-53s23.8-53,53-53s53,23.8,53,53S683.2,884,654,884z M654,784&#10;&#9;&#9;&#9;&#9;c-25.9,0-47,21.1-47,47s21.1,47,47,47s47-21.1,47-47S679.9,784,654,784z" style="fill: rgb(230, 126, 34);"/>
		</g>
	</g>
</g></g></svg>